<svg width="319" height="319" viewBox="0 0 319 319" fill="none" xmlns="http://www.w3.org/2000/svg">
<path d="M159.5 310.76C240.633 310.76 306.404 271.89 306.404 223.942C306.404 175.994 240.633 137.124 159.5 137.124C78.3666 137.124 12.5952 175.994 12.5952 223.942C12.5952 271.89 78.3666 310.76 159.5 310.76Z" fill="#FAFAFA"/>
<path d="M103.967 266.01C103.852 265.939 103.777 265.827 103.762 265.704C101.576 248.642 85.1347 236.335 78.1141 231.079C76.9791 230.23 76.0827 229.559 75.506 229.064C72.9259 226.851 71.7558 223.938 72.3779 221.273C72.9374 218.871 74.9311 216.994 77.8468 216.125C84.9803 213.997 96.4668 221.997 103.994 234.331C114.542 251.617 110.135 264.399 110.089 264.526C110.041 264.66 109.92 264.763 109.769 264.798L104.356 266.074C104.294 266.088 104.23 266.091 104.168 266.083C104.098 266.073 104.028 266.048 103.967 266.01ZM103.173 234.727C95.8614 222.747 84.8744 214.93 78.1594 216.929C75.5226 217.715 73.7968 219.325 73.2979 221.463C72.7453 223.837 73.8095 226.452 76.1478 228.456C76.7003 228.931 77.5858 229.593 78.7062 230.432C85.7484 235.704 102.149 247.982 104.628 265.129L109.261 264.038C109.774 262.322 112.77 250.457 103.173 234.727Z" fill="#9BCAFE"/>
<path d="M107.244 265.357C107.265 265.36 107.286 265.362 107.308 265.362C107.568 265.365 107.777 265.179 107.775 264.945C107.66 245.011 91.8447 225.846 81.4357 221.919C81.1933 221.826 80.9208 221.928 80.8239 222.144C80.7282 222.36 80.8456 222.608 81.0861 222.699C91.3783 226.583 106.725 246.028 106.834 264.932C106.836 265.147 107.014 265.327 107.244 265.357Z" fill="#9BCAFE"/>
<path d="M109.582 264.807C109.649 264.816 109.72 264.812 109.788 264.793L113.454 263.777C113.602 263.737 113.716 263.632 113.76 263.499C113.821 263.309 119.837 244.248 114.372 218.607C111.589 205.545 102.802 192.82 93.4772 188.349C88.9933 186.201 84.6358 185.941 80.5226 187.58C78.1971 188.507 76.7622 189.868 76.2563 191.625C74.8585 196.483 80.6406 203.694 86.761 211.329C91.0439 216.669 95.4722 222.192 97.554 227.074C97.6478 227.295 97.9209 227.406 98.1627 227.328C98.4051 227.247 98.5251 227.005 98.4313 226.785C96.3055 221.798 91.8388 216.228 87.5202 210.841C81.5345 203.375 75.8799 196.325 77.1667 191.853C77.6044 190.332 78.8306 189.187 80.9182 188.356C84.7532 186.826 88.8345 187.073 93.0472 189.095C102.136 193.453 110.715 205.925 113.448 218.75C118.56 242.74 113.558 260.884 112.919 263.034L109.494 263.983C109.247 264.051 109.112 264.288 109.193 264.512C109.254 264.673 109.408 264.783 109.582 264.807Z" fill="#9BCAFE"/>
<path d="M110.182 252.675C110.192 252.677 110.204 252.679 110.215 252.679C110.474 252.697 110.696 252.523 110.712 252.29C112.694 221.447 92.9562 196.808 87.1963 192.585C86.9934 192.437 86.6967 192.46 86.5353 192.64C86.3739 192.821 86.4071 193.088 86.6106 193.237C92.2875 197.399 111.733 221.715 109.773 252.224C109.759 252.447 109.939 252.643 110.182 252.675Z" fill="#9BCAFE"/>
<path d="M142.591 289.376C167.779 289.376 188.198 277.587 188.198 263.045C188.198 248.503 167.779 236.714 142.591 236.714C117.403 236.714 96.9844 248.503 96.9844 263.045C96.9844 277.587 117.403 289.376 142.591 289.376Z" fill="#E0E0E0"/>
<path d="M248.589 256.391L183.882 293.749C181.934 294.874 178.53 294.733 176.28 293.434L166.47 287.77C164.22 286.471 163.975 284.506 165.924 283.381L230.631 246.023C232.579 244.898 235.983 245.039 238.233 246.338L248.043 252.002C250.293 253.3 250.537 255.265 248.589 256.391Z" fill="#E0E0E0"/>
<path d="M148.109 183.928C195.292 183.928 233.542 145.679 233.542 98.4951C233.542 51.3116 195.292 13.0618 148.109 13.0618C100.925 13.0618 62.6753 51.3116 62.6753 98.4951C62.6753 145.679 100.925 183.928 148.109 183.928Z" fill="#0760F8"/>
<path opacity="0.8" d="M148.109 183.928C195.292 183.928 233.542 145.679 233.542 98.4951C233.542 51.3116 195.292 13.0618 148.109 13.0618C100.925 13.0618 62.6753 51.3116 62.6753 98.4951C62.6753 145.679 100.925 183.928 148.109 183.928Z" fill="white"/>
<path d="M149.601 240.682L148.218 228.609L162.774 226.912C162.774 226.912 162.277 236.46 162.399 240.837C162.457 242.9 163.909 246.769 163.909 246.769C163.909 246.769 158.194 249.879 155.204 248.651C152.213 247.423 150.199 242.609 150.263 241.724L149.601 240.682Z" fill="#FFBDA7"/>
<path d="M180.716 261.278C180.919 261.286 181.03 263.213 179.89 264.132C178.574 265.193 174.424 267.184 169.515 266.342C164.606 265.5 161.995 263.849 160.086 262.098C158.178 260.346 155.503 257.877 153.291 257.29C151.236 256.745 148.492 254.933 147.854 254.258C147.216 253.583 147.422 250.702 147.422 250.702L180.716 261.278Z" fill="#263238"/>
<path d="M149.476 239.529C149.476 239.529 149.208 239.661 149.054 240.324C148.871 241.113 148.616 243.417 148.238 244.709C147.713 246.505 147.263 250.209 147.477 251.698C147.69 253.186 151.559 255.119 153.686 256.038C155.859 256.977 158.341 258.831 160.508 260.79C162.75 262.818 167.549 265.024 170.766 265.128C174.573 265.251 178.906 264.174 179.958 262.426C181.259 260.264 182.246 257.732 176.709 254.861C175.66 254.318 171.998 251.921 170.751 251.055C167.378 248.714 165.024 246.595 163.586 242.631C163.418 242.167 163.243 241.654 162.822 241.406C162.499 241.215 162.101 241.224 161.729 241.262C160.784 241.358 157.014 241.733 156.141 242.113C155.369 242.448 154.278 242.83 154.255 243.813C154.248 244.155 154.332 244.492 154.429 244.819C154.489 245.022 154.531 245.291 154.354 245.403C154.185 245.508 153.973 245.372 153.832 245.233C153.262 244.673 152.856 243.97 152.384 243.325C152.13 242.979 151.323 241.875 150.998 241.596C150.702 241.344 150.317 241.209 150.057 240.925C149.726 240.565 149.474 239.99 149.476 239.529Z" fill="#455A64"/>
<path d="M160.507 260.79C159.555 259.929 158.542 259.094 157.521 258.343L157.521 258.337C157.521 258.337 163.996 262.684 166.75 260.937C168.524 259.811 167.76 258.327 167.737 257.862C167.713 257.396 173.941 254.366 175.626 254.23C176.083 254.51 176.461 254.75 176.708 254.862C181.044 256.819 181.539 259.142 180.693 262.004C179.641 263.751 175.747 265.444 170.829 265.25C167.612 265.121 162.749 262.817 160.507 260.79Z" fill="#37474F"/>
<path d="M167.326 256.492C170.778 258.051 169.256 258.655 168.268 258.758C167.279 258.861 161.512 255.136 158.024 252.108C154.385 248.95 151.617 244.795 150.265 243.635C149.761 243.202 149.221 242.674 148.742 242.181C148.865 241.403 148.968 240.694 149.054 240.323C149.208 239.66 149.476 239.529 149.476 239.529C149.476 239.529 149.727 240.565 150.056 240.924C150.316 241.208 150.702 241.343 150.997 241.596C151.323 241.874 152.13 242.978 152.383 243.324C152.856 243.97 153.261 244.674 153.831 245.232C156.74 249.29 163.873 254.933 167.326 256.492Z" fill="#37474F"/>
<path d="M168.038 258.226C167.96 258.223 167.884 258.194 167.821 258.138C167.678 258.01 167.664 257.787 167.792 257.641C168.831 256.453 173.639 253.727 176.208 254.116C176.399 254.144 176.53 254.323 176.501 254.515C176.473 254.706 176.316 254.835 176.107 254.811C173.707 254.453 169.135 257.166 168.312 258.108C168.241 258.19 168.139 258.23 168.038 258.226Z" fill="#263238"/>
<path d="M165.053 256.198C164.976 256.195 164.9 256.166 164.836 256.11C164.693 255.981 164.68 255.759 164.807 255.614C165.845 254.426 170.651 251.701 173.224 252.089C173.414 252.117 173.545 252.297 173.516 252.487C173.489 252.679 173.317 252.812 173.122 252.784C170.721 252.429 166.151 255.138 165.327 256.079C165.256 256.162 165.154 256.202 165.053 256.198Z" fill="#263238"/>
<path d="M162.063 254.271C161.986 254.267 161.909 254.239 161.846 254.183C161.703 254.054 161.69 253.832 161.817 253.686C162.856 252.498 167.664 249.769 170.233 250.161C170.423 250.189 170.555 250.369 170.526 250.561C170.498 250.752 170.329 250.885 170.131 250.857C167.73 250.499 163.159 253.211 162.336 254.153C162.265 254.234 162.164 254.274 162.063 254.271Z" fill="#263238"/>
<path d="M159.308 252.096C159.23 252.093 159.154 252.064 159.091 252.008C158.947 251.879 158.935 251.657 159.062 251.511C160.1 250.323 164.918 247.598 167.478 247.986C167.668 248.014 167.8 248.194 167.771 248.385C167.743 248.577 167.573 248.709 167.377 248.682C164.979 248.326 160.405 251.035 159.582 251.976C159.51 252.059 159.409 252.1 159.308 252.096Z" fill="#263238"/>
<path d="M156.61 249.923C156.535 249.92 156.459 249.892 156.398 249.838C156.251 249.712 156.235 249.489 156.361 249.342C157.79 247.656 162.8 245.417 165.37 245.805C165.56 245.833 165.691 246.013 165.663 246.204C165.635 246.396 165.464 246.523 165.268 246.5C162.955 246.153 158.156 248.305 156.888 249.8C156.816 249.886 156.712 249.927 156.61 249.923Z" fill="#263238"/>
<path d="M125.585 245.695L128.716 230.8L114.429 228.629L114.33 243.309C114.33 243.309 113.274 247.265 114.09 248.616C114.906 249.966 123.491 251.324 124.268 250.413C125.045 249.504 125.585 245.695 125.585 245.695Z" fill="#FFBDA7"/>
<path d="M124.367 269.138C124.021 272.476 123.359 274.638 121.972 276.456C120.583 278.275 118.086 278.603 115.603 277.731C113.12 276.859 109.971 274.938 109.366 271.953C108.761 268.967 108.983 266.996 109.673 263.943L124.367 269.138Z" fill="#263238"/>
<path d="M114.329 243.309C113.294 243.262 113.597 245.884 113.149 250.386C112.664 255.255 110.564 259.086 109.839 262.992C109.011 267.456 109.194 269.514 110.835 272.465C112.476 275.416 118.56 278.836 121.763 275.263C124.374 272.35 124.615 268.808 124.565 264.248C124.513 259.534 124.436 256.213 124.785 252.682C125.118 249.306 126.467 246.18 125.585 245.696C125.497 246.187 124.648 249.61 124.069 249.56C124.032 249.119 124.058 248.716 124.107 248.278C124.15 247.897 124.131 247.473 123.867 247.148C123.601 246.82 122.612 246.417 122.196 246.293C121.187 245.99 119.386 245.618 118.357 245.412C117.845 245.309 117.33 245.226 116.813 245.171C116.394 245.126 115.9 245.1 115.498 245.187C115.251 245.24 115.02 245.371 114.921 245.582C114.848 245.738 114.854 245.92 114.847 246.094C114.835 246.408 114.779 246.717 114.682 247.011C114.639 247.14 114.531 247.292 114.385 247.242C114.266 247.202 114.223 247.061 114.227 246.948C114.244 246.4 114.297 243.597 114.329 243.309Z" fill="#455A64"/>
<path d="M110.124 261.728C109.998 262.371 109.22 266.635 110.488 267.569C111.859 268.58 112.763 265.262 112.763 265.262C112.763 265.262 116.093 264.731 120.813 267.204C120.539 267.879 121.189 270.286 122.524 269.95C123.849 269.617 124.559 264.704 124.568 264.64C124.598 269.01 124.298 272.434 121.763 275.262C118.56 278.835 112.476 275.415 110.835 272.464C109.194 269.514 109.011 267.455 109.839 262.991C109.922 262.545 110.019 262.128 110.124 261.728Z" fill="#37474F"/>
<path d="M113.127 265.597C113.042 267.236 111.283 266.472 111.295 264.146C111.308 261.819 112.446 256.161 112.862 252.353C113.113 246.879 113.294 243.261 114.329 243.309C114.323 243.364 114.322 243.42 114.317 243.475C114.317 243.475 114.237 246.594 114.226 246.948C114.07 250.292 114.085 256.788 113.649 259.811C113.213 262.835 113.211 263.959 113.127 265.597Z" fill="#37474F"/>
<path d="M120.258 267.093C120.66 265.521 120.987 264.465 121.465 261.451C121.94 258.459 123.627 252.462 124.461 249.238C124.735 248.707 125.584 245.695 125.584 245.695C126.302 245.897 125.612 248.769 125.288 250.113C124.965 251.457 124.569 252.898 124.167 254.826C123.129 258.627 123.078 264.321 122.406 266.509C121.736 268.698 119.857 268.666 120.258 267.093Z" fill="#37474F"/>
<path d="M120.909 267.349C120.861 267.34 120.815 267.321 120.771 267.296C120.735 267.273 117.055 265.089 112.848 265.611C112.641 265.635 112.436 265.5 112.39 265.308C112.342 265.116 112.472 264.94 112.678 264.915C117.18 264.356 120.989 266.622 121.151 266.72C121.334 266.831 121.399 267.05 121.293 267.209C121.214 267.329 121.059 267.38 120.909 267.349Z" fill="#263238"/>
<path d="M121.909 263.888C121.867 263.879 121.824 263.864 121.784 263.841C121.743 263.818 117.6 261.525 112.912 261.958C112.705 261.974 112.505 261.835 112.463 261.642C112.423 261.449 112.559 261.277 112.767 261.258C117.725 260.804 121.96 263.151 122.139 263.25C122.327 263.357 122.399 263.574 122.301 263.737C122.224 263.864 122.065 263.92 121.909 263.888Z" fill="#263238"/>
<path d="M113.294 258.604C113.15 258.574 113.023 258.471 112.979 258.331C112.919 258.141 113.033 257.955 113.236 257.917C117.919 257.034 122.409 259.713 122.599 259.828C122.783 259.939 122.847 260.157 122.742 260.317C122.637 260.475 122.4 260.51 122.22 260.403C122.177 260.378 117.815 257.78 113.457 258.606C113.402 258.617 113.347 258.615 113.294 258.604Z" fill="#263238"/>
<path d="M113.683 255.445C113.542 255.415 113.417 255.314 113.371 255.179C113.306 254.988 113.417 254.801 113.618 254.759C118.773 253.698 122.994 256.545 123.171 256.666C123.348 256.788 123.398 257.008 123.281 257.16C123.165 257.311 122.922 257.336 122.751 257.215C122.712 257.188 118.65 254.46 113.853 255.445C113.796 255.457 113.738 255.456 113.683 255.445Z" fill="#263238"/>
<path d="M114.137 251.897C113.998 251.867 113.874 251.769 113.826 251.635C113.759 251.446 113.867 251.257 114.067 251.213C118.901 250.148 123.492 253.097 123.684 253.225C123.864 253.342 123.919 253.563 123.807 253.717C123.696 253.872 123.46 253.905 123.279 253.783C123.235 253.755 118.799 250.907 114.311 251.896C114.253 251.909 114.194 251.909 114.137 251.897Z" fill="#263238"/>
<path d="M117.73 132.08C116.51 145.317 115.904 150.337 115.643 168.876C115.55 175.441 115.06 179.887 115.091 186.453C115.1 188.314 114.561 193.868 114.349 197.791C114.19 200.733 113.241 209.157 113.352 215.039C113.424 218.87 113.352 221.498 113.278 224.836C113.246 226.275 112.562 227.635 112.455 229.07C112.397 229.843 112.442 230.64 112.661 231.386C112.881 232.141 113.495 232.639 113.74 233.32C114.096 234.313 113.804 235.816 113.815 236.889C113.815 236.889 122.422 240.581 127.733 238.593C127.969 237.638 128.022 236.06 128.541 235.269C128.912 234.703 129.802 234.372 130.266 233.81C130.756 233.218 131.116 232.516 131.295 231.767C131.545 230.722 131.457 229.63 131.537 228.558C131.723 226.03 132.83 223.678 133.6 221.263C135.678 214.756 135.197 207.876 136.443 201.228C138.126 192.252 140.144 186.578 141.077 180.188C142.009 173.798 144.897 192.846 144.897 192.849C145.062 193.931 144.811 195.233 144.785 196.325C144.728 198.591 144.816 200.816 144.559 203.055C143.989 208.026 144.198 213.085 145.181 217.991C145.698 220.571 146.142 222.346 146.042 224.983C145.983 226.53 145.737 227.901 146.352 229.322C146.794 230.344 147.417 230.59 147.968 231.535C148.194 231.924 148.248 235.026 148.489 235.172C148.489 235.172 157.349 239.696 162.851 234.976C162.914 234.072 162.807 232.284 163.166 231.482C164.113 230.444 164.666 229.617 164.754 228.065C164.836 226.607 164.381 225.549 164.353 224.088C164.318 222.296 164.593 220.515 164.76 218.731C164.998 216.186 165.296 215.08 165.63 211.85C165.782 210.375 166.006 208.621 166.153 204.877C166.297 201.213 166.648 196.522 166.705 192.848C166.931 178.401 166.438 151.03 166.207 132.079H117.73V132.08Z" fill="#37474F"/>
<path d="M127.58 138.288C127.67 153.368 120.292 157.731 116.664 157.731C116.664 157.731 126.064 154.139 127.58 138.288Z" fill="#263238"/>
<path d="M144.574 154.362L140.691 182.839C140.819 181.962 140.947 181.082 141.077 180.187C142.01 173.797 144.898 192.849 144.898 192.849L144.053 180.39C143.822 176.495 144.029 172.586 144.669 168.737L147.017 156.497C153.091 154.769 155.526 149.674 155.526 149.674C152.239 152.982 144.574 154.362 144.574 154.362Z" fill="#263238"/>
<path d="M113.673 237.399C116.084 239.31 123.072 240.898 127.828 239.085L128.752 234.934C125.161 236.211 117.733 235.481 113.716 232.979L113.673 237.399Z" fill="#263238"/>
<path d="M148.495 235.654C150.125 237.325 158.476 238.342 162.876 235.642L163.167 231.481C159.83 233.429 151.272 233.48 147.968 231.535L148.495 235.654Z" fill="#263238"/>
<path d="M115.557 172.287C115.557 172.287 114.693 190.609 114.756 191.961C114.819 193.313 125.671 196.189 125.918 195.327C126.329 193.893 126.195 190.702 126.908 175.315C118.758 174.3 115.557 172.287 115.557 172.287Z" fill="#263238"/>
<path d="M125.423 180.619C125.126 180.519 124.804 180.552 124.496 180.547C124.135 180.541 123.775 180.528 123.416 180.5C122.656 180.441 121.898 180.328 121.152 180.162C120.308 179.974 119.476 179.72 118.666 179.409C118.006 179.155 117.38 178.81 116.72 178.562C116.657 178.539 116.648 178.661 116.688 178.691C117.316 179.155 118.059 179.471 118.772 179.759C119.443 180.03 120.129 180.248 120.828 180.421C121.572 180.605 122.326 180.736 123.086 180.814C123.466 180.853 123.847 180.879 124.229 180.89C124.589 180.901 125.106 180.981 125.43 180.792C125.479 180.762 125.484 180.639 125.423 180.619Z" fill="black"/>
<path d="M121.129 178.063C121.033 177.872 120.959 177.754 120.748 177.731C120.576 177.712 120.396 177.758 120.255 177.864C120.121 177.965 120.033 178.117 120.014 178.287C119.982 178.578 120.13 178.845 120.372 178.983C120.581 179.101 120.876 179.117 121.074 178.965C121.205 178.864 121.241 178.702 121.242 178.539C121.241 178.376 121.201 178.207 121.129 178.063ZM120.947 178.631C120.84 178.783 120.606 178.819 120.454 178.73C120.202 178.583 120.249 178.084 120.556 178.048C120.653 178.036 120.754 178.058 120.831 178.119C120.962 178.223 121.056 178.478 120.947 178.631Z" fill="black"/>
<path d="M219.367 74.7327C218.693 74.5885 217.93 75.1046 217.157 75.8613C217.483 75.2629 217.676 74.7531 217.597 74.4628C217.363 73.5926 216.68 73.2991 215.23 74.5936C213.779 75.8881 210.234 79.3327 206.876 80.3713C206.272 80.5583 205.112 81.0891 204.488 80.8396C203.627 80.4957 204.353 79.2606 204.652 78.7368C204.938 78.2353 205.191 77.7153 205.411 77.1813C205.656 76.5842 205.86 75.9557 205.856 75.3107C205.852 74.6657 205.614 73.9958 205.107 73.5964C204.834 73.3814 204.463 73.2583 204.236 73.5728C203.334 74.822 202.387 76.0387 201.478 77.2828C200.616 78.4624 199.666 79.6529 199.025 80.9691C198.286 82.4838 197.379 84.2848 196.296 85.6291C195.481 86.6671 193.552 88.4586 190.868 90.8103C187.553 93.7145 180.382 99.4201 180.382 99.4201C180.382 99.4201 178.02 97.0569 172.054 90.4268C164.314 81.8247 161.023 78.0688 154.08 78.5454C151.187 85.3331 156.666 97.2809 156.666 97.2809C156.666 97.2809 166.145 106.874 176.254 115.414C179.567 118.213 183.655 118.135 188.313 113.262C195.324 105.928 198.408 99.8731 202.865 94.2217C203.607 93.2806 205.138 92.0187 208.059 91.107C209.203 90.7497 210.46 90.261 211.201 89.9892C212.099 89.6593 213.64 88.8159 214.446 88.3004C216.148 87.21 216.207 87.3453 218.335 84.6842C218.597 84.3556 219.627 82.9163 219.426 82.5469C219.257 82.2356 218.935 82.1475 218.589 82.2279C218.096 82.3421 217.79 82.7134 216.902 83.2634C217.766 82.3638 218.99 81.038 219.416 79.5375C219.479 79.3123 219.516 78.9709 219.446 78.7476C219.381 78.5371 219.1 77.9693 218.731 77.9386C218.731 77.9386 219.099 77.2215 219.428 76.6078C219.697 76.1069 220.218 74.9145 219.367 74.7327Z" fill="#FFBDA7"/>
<path d="M180.38 99.4199C177.929 101.57 175.985 105.023 176.203 107.152C175.133 103.909 176.843 99.8946 179.062 98.186L180.38 99.4199Z" fill="#F0997A"/>
<path d="M200.912 88.9243C200.884 88.7425 200.874 88.5562 200.891 88.3724C200.925 88.0183 201.036 87.6598 201.175 87.3337C201.454 86.6836 201.897 86.0935 202.437 85.6373C203.604 84.6497 205.398 84.256 206.844 84.806C206.885 84.8213 206.957 84.9515 206.876 84.954C205.416 84.9999 203.967 85.118 202.795 86.0992C201.825 86.9107 201.397 88.2123 201.297 89.443C201.287 89.5584 201.165 89.5508 201.124 89.4576C201.036 89.2669 200.944 89.138 200.912 88.9243Z" fill="#F0997A"/>
<path d="M209.731 81.7672C211.071 80.994 212.325 79.984 213.537 79.0225C214.699 78.1006 215.8 77.09 216.906 76.1037C216.919 76.0916 216.947 76.1247 216.937 76.1375C215.95 77.4263 214.79 78.5051 213.509 79.5023C212.33 80.4204 211.058 81.0814 209.753 81.7927C209.74 81.7998 209.719 81.7736 209.731 81.7672Z" fill="#F0997A"/>
<path d="M210.381 84.3142C211.721 83.5409 212.975 82.531 214.187 81.5695C214.653 81.2001 215.108 80.8173 215.556 80.4275C215.997 80.0453 216.458 79.6715 216.855 79.2466C216.978 79.1151 217.101 78.9837 217.223 78.8523C217.381 78.6839 217.516 78.5046 217.703 78.3642C217.894 78.2207 218.111 78.1122 218.341 78.0478C218.363 78.0414 218.397 78.0478 218.392 78.0695C218.118 78.1945 217.88 78.3878 217.673 78.6054C217.534 78.7508 217.408 78.9078 217.287 79.0686C217.177 79.214 217.059 79.3359 216.94 79.4724C216.57 79.8941 216.178 80.2954 215.769 80.6795C215.255 81.1618 214.715 81.6161 214.159 82.0493C212.98 82.9674 211.708 83.6284 210.403 84.3404C210.389 84.3474 210.369 84.3212 210.381 84.3142Z" fill="#F0997A"/>
<path d="M216.901 83.2632C216.15 83.8623 215.399 84.4173 214.581 84.8856C213.785 85.3884 212.929 85.7935 212.114 86.3071C213.045 86.0621 213.925 85.6678 214.763 85.1874C215.576 84.6763 216.358 84.0658 216.901 83.2632Z" fill="#F0997A"/>
<path d="M196.296 85.6292C197.13 84.7443 197.754 83.9659 198.342 82.674C198.559 82.1195 198.906 81.5422 199.18 81.0311C199.447 80.5124 199.857 79.965 200.192 79.4789C200.854 78.5053 201.583 77.547 202.253 76.5594C202.933 75.5775 203.607 74.5905 204.236 73.5723C203.441 74.4706 202.69 75.4008 201.945 76.3354C201.201 77.272 200.472 78.2073 199.781 79.202C199.448 79.7054 199.127 80.2228 198.861 80.774C198.597 81.3303 198.297 81.851 198.068 82.4315C197.839 83.0121 197.758 83.1633 197.434 83.8581C197.109 84.5529 196.622 85.1258 196.296 85.6292Z" fill="#F0997A"/>
<path d="M155.405 77.1499C162.849 78.2562 164.741 81.6503 167.487 84.6483C170.233 87.6463 180.722 99.1469 180.722 99.1469C180.722 99.1469 176.861 102.281 176.247 106.916C175.513 112.452 176.933 115.045 177.471 116.553C177.471 116.553 174.352 114.469 172.856 112.907C171.359 111.345 158.32 99.7868 158.32 99.7868L155.405 77.1499Z" fill="#455A64"/>
<path d="M181.361 98.6369L180.934 98.9782C180.934 98.9782 176.733 102.959 176.799 108.349C176.866 113.738 178.325 116.729 178.325 116.729C178.325 116.729 179.07 117.025 179.408 117.096C178.72 117.853 177.127 117.871 175.725 116.256C174.323 114.642 173.088 113.84 171.631 113.151C170.174 112.461 168.392 111.376 169.795 106.151C171.198 100.925 175.68 96.5162 178.296 96.1468C179.603 95.9618 179.493 97.0285 180.006 97.5325C180.569 98.0838 181.003 97.9185 181.361 98.6369Z" fill="#37474F"/>
<path d="M140.149 143.935C126.925 143.935 118.476 139.8 117.187 139.125C117.321 136.611 117.549 133.759 117.769 130.999C118.168 125.987 118.546 121.252 118.333 119.049C117.924 114.809 116.984 110.695 116.154 107.065C115.791 105.477 115.448 103.979 115.16 102.533C111.435 83.8261 117.616 80.8951 117.678 80.8677C123.314 78.7521 130.491 76.4228 131.145 76.2109H146.407C149.432 76.4942 152.342 76.9006 155.273 77.4499C159.068 80.2878 164.175 85.9449 165.062 102.105C165.666 113.104 166.171 134.074 166.206 135.539C165.872 136.165 162.552 141.656 148.414 143.416C145.645 143.76 142.864 143.935 140.151 143.935H140.149Z" fill="#FAFAFA"/>
<path d="M146.378 76.5306C149.386 76.8119 152.255 77.2107 155.142 77.7504C158.879 80.5646 163.869 86.181 164.744 102.123C165.338 112.94 165.836 133.409 165.885 135.461C165.412 136.283 161.942 141.411 148.374 143.1C145.618 143.443 142.851 143.617 140.149 143.617C127.506 143.617 119.257 139.818 117.516 138.937C117.651 136.478 117.872 133.708 118.086 131.025C118.487 125.998 118.866 121.251 118.65 119.019C118.239 114.757 117.296 110.632 116.463 106.993C116.101 105.408 115.759 103.912 115.472 102.471C111.879 84.4284 117.545 81.2926 117.798 81.1637C123.321 79.0909 130.3 76.8202 131.194 76.5306H146.378ZM146.408 75.8926H131.095C131.095 75.8926 123.521 78.3336 117.553 80.5749C117.553 80.5749 111.01 83.3189 114.848 102.595C115.816 107.455 117.436 113.065 118.016 119.08C118.346 122.499 117.224 132.254 116.858 139.31C116.858 139.31 125.561 144.254 140.151 144.254C142.739 144.254 145.511 144.099 148.454 143.732C163.791 141.823 166.528 135.611 166.528 135.611C166.528 135.611 166.012 113.568 165.382 102.088C164.521 86.41 159.662 80.3126 155.406 77.1501C152.68 76.6371 149.728 76.202 146.408 75.8926Z" fill="#E0E0E0"/>
<path d="M131.753 71.216C130.143 67.9265 128.274 66.0125 125.07 61.6326C122.503 58.1224 121.306 54.1476 121.643 51.3813C122.009 48.3769 124.025 47.0205 125.525 46.549C125.433 43.6308 126.454 41.1618 128.25 39.3039C130.377 37.1028 133.578 36.2402 136.637 35.9825C138.781 35.8013 140.948 36.1694 143.085 35.9212C145.222 35.6731 147.483 34.5904 148.199 32.5615C148.573 33.9294 148.541 35.4051 148.109 36.7551C148.178 36.5395 149.66 36.5178 149.876 36.5139C150.413 36.5037 150.984 36.5286 151.509 36.6383C152.469 36.8393 153.398 37.4888 153.858 38.3597C154.374 39.339 154.249 40.6692 153.433 41.4176C154.036 42.187 155.028 42.5985 156.005 42.6132C156.983 42.6273 157.941 42.2751 158.761 41.7417C158.935 42.4046 158.487 43.0719 157.977 43.53C157.177 44.2471 156.16 44.7193 155.095 44.8673C156.117 45.9557 156.537 47.619 156.022 49.02C155.506 50.4217 154.013 51.4387 152.529 51.2766C152.908 51.3181 152.22 52.7198 152.097 52.8384C151.646 53.2736 151.123 53.687 150.656 54.1234C149.279 55.4121 147.899 56.6977 146.516 57.9801C143.206 61.0501 139.884 64.1081 136.512 67.1105C136.175 67.4129 131.717 71.158 131.753 71.216Z" fill="#263238"/>
<path d="M127.945 65.9136C129.785 66.1681 131.115 65.1033 131.14 64.1706L131.092 76.7136C135.477 83.8694 152.929 84.688 146.447 77.2464L146.319 72.7714C146.319 72.7714 147.347 72.684 148.951 72.2783C151.628 71.6096 153.881 69.6389 154.429 66.5962C154.992 63.4649 154.518 60.0848 154.094 56.9663C153.849 55.1575 153.548 53.3558 153.208 51.563C153.054 50.7509 152.892 49.94 152.721 49.1316C152.533 48.2435 152.278 47.4709 151.895 46.6422C151.171 45.0739 150.626 44.4889 149.301 43.269C148.344 44.2216 147.703 45.7834 146.537 46.4641C145.423 47.1143 144.027 46.5828 142.812 46.1509C141.186 45.5741 139.468 45.2047 137.737 45.2028C136.873 45.2015 136.006 45.2941 135.166 45.504C134.455 45.6813 133.438 45.8727 133.357 46.7602C133.327 47.0881 133.412 47.4135 133.489 47.7331C133.985 49.7798 134.386 51.9854 133.37 53.9396C133.21 54.2484 133.021 54.5451 132.904 54.873C132.725 55.3745 132.724 55.9193 132.649 56.4469C132.573 56.9739 132.395 57.5271 131.97 57.848C131.605 58.123 131.084 58.1753 130.671 57.9781C130.18 57.7427 129.901 57.2278 129.586 56.7838C128.976 55.9244 128.022 55.3151 126.942 55.3253C125.386 55.3394 124.398 55.9416 123.694 57.0613C122.991 58.181 122.886 59.5942 123.123 60.8951C123.438 62.6202 124.875 65.488 127.945 65.9136Z" fill="#FFBDA7"/>
<path d="M146.319 72.7708C142.755 73.0592 139.555 72.8895 137.375 72.1762C135.195 71.4629 133.081 68.7502 132.221 65.9519C132.421 68.2468 133.773 72.2298 137.107 73.643C140.441 75.0562 143.984 74.9133 146.319 74.7614V72.7708Z" fill="#F0997A"/>
<path d="M141.914 63.0049L146.446 64.5488C146.042 65.8465 144.7 66.5528 143.448 66.1266C142.197 65.7004 141.51 64.3019 141.914 63.0049Z" fill="#B16668"/>
<path d="M142.387 63.8285C142.192 63.7845 142 63.7698 141.81 63.7686C141.812 64.8104 142.442 65.7834 143.448 66.126C143.701 66.2121 143.956 66.2408 144.207 66.2389C144.404 65.1773 143.609 64.108 142.387 63.8285Z" fill="#F28F8F"/>
<path d="M151.787 52.2407L149.016 51.6748C149.144 50.8977 149.869 50.3944 150.634 50.5507C151.399 50.707 151.915 51.4637 151.787 52.2407Z" fill="#263238"/>
<path d="M140.652 52.6547L138.126 53.9269C137.745 53.2372 138.003 52.3932 138.701 52.0416C139.398 51.6907 140.271 51.9651 140.652 52.6547Z" fill="#263238"/>
<path d="M139.427 55.8651C139.48 56.5905 140.111 57.1348 140.837 57.0818C141.562 57.0282 142.107 56.3972 142.054 55.6725C142 54.947 141.369 54.4022 140.644 54.4558C139.918 54.5087 139.374 55.1397 139.427 55.8651Z" fill="#263238"/>
<path d="M148.574 54.8328C148.627 55.5582 149.258 56.1031 149.984 56.0495C150.709 55.9959 151.253 55.3649 151.201 54.6401C151.147 53.9147 150.516 53.3705 149.791 53.4235C149.065 53.4771 148.521 54.1081 148.574 54.8328Z" fill="#263238"/>
<path d="M143.755 53.2742C147.006 53.1007 150.279 60.0338 150.279 60.0338L145.424 61.8764L143.755 53.2742Z" fill="#F0997A"/>
<path d="M137.522 117.102C138.861 116.736 142.877 111.862 143.461 110.624C144.046 109.386 145.002 107.955 145.922 106.841C146.841 105.727 147.226 104.365 146.824 103.808C146.422 103.251 145.952 102.98 145.221 103.65C144.49 104.319 143.739 105.104 141.769 106.028C139.799 106.952 138.428 107.432 136.907 110.428C135.692 112.819 137.522 117.102 137.522 117.102Z" fill="#F0997A"/>
<path d="M233.637 52.6227L217.409 42.1059C216.277 41.4271 214.706 41.7231 213.899 42.7681L168.937 100.991L150.864 87.2131C149.815 86.4124 148.279 86.5847 147.434 87.5985L135.472 101.458C134.627 102.472 134.792 103.943 135.841 104.745L172.017 132.389C173.065 133.191 174.57 132.993 175.377 131.948C185.26 119.148 224.342 68.5472 234.225 55.7463C235.032 54.7006 234.769 53.3022 233.637 52.6227Z" fill="#448EFC"/>
<path d="M149.132 111.187C150.183 111.018 150.709 110.226 150.158 109.555C149.607 108.885 146.832 107.878 145.898 107.713C144.964 107.549 143.83 107.463 142.18 107.732C140.529 108 138.621 108.193 138.085 108.621C137.424 109.148 137.114 110.095 136.361 111.504C135.601 112.929 135.028 114.257 134.119 115.728C133.296 117.061 132.442 117.529 129.658 117.401C127.951 117.322 124.401 116.979 119.427 116.306C120.175 113.164 122.84 101.798 123.198 97.7559C123.615 93.0462 122.317 82.0975 116.671 81.3804C111.186 84.4319 109.842 87.1051 108.588 93.5502C107.345 99.9398 104.366 116.97 104.851 124.875C104.851 124.885 104.85 124.895 104.851 124.904C104.923 126.855 105.385 129.522 113.199 129.567C121.014 129.612 129.211 128.249 137.21 126.936C140.857 126.338 141.932 124.39 142.678 122.889C143.642 120.947 144.11 120.061 145.952 119.24C146.957 118.791 147.806 118.585 148.645 118.008C149.483 117.431 149.891 116.738 149.724 116.24C149.557 115.742 148.899 115.895 148.899 115.895C148.899 115.895 149 115.711 148.964 115.3C148.929 114.889 148.767 114.504 148.767 114.504C148.767 114.504 149.128 114.486 149.516 114.326C149.904 114.167 150.05 113.371 150.015 112.96C149.98 112.549 148.913 111.912 148.333 111.793C147.755 111.673 145.996 111.226 145.475 111.194C144.953 111.162 141.256 111.409 141.256 111.409C141.256 111.409 144.075 110.813 145.196 110.695C146.317 110.58 148.209 111.336 149.132 111.187Z" fill="#FFBDA7"/>
<path d="M119.912 114.243C115.103 114.382 112.286 115.554 110.914 117.366C113.091 116.126 116.211 116.037 119.427 116.306L119.912 114.243Z" fill="#F0997A"/>
<path d="M149.514 114.328C149.682 114.258 149.802 114.067 149.885 113.842C149.88 113.846 149.58 114.062 148.762 114.111C147.937 114.16 145.669 113.834 144.325 114.041C142.981 114.247 141.524 114.639 140.901 114.469C141.33 114.661 142.83 114.599 144.416 114.412C146.001 114.226 148.765 114.505 148.765 114.505C148.765 114.505 149.126 114.487 149.514 114.328Z" fill="#F0997A"/>
<path d="M147.371 116.495C146.89 116.661 144.598 116.966 143.761 117.101C142.924 117.236 141.534 117.336 141.534 117.336C141.534 117.336 142.614 117.482 143.402 117.389C144.191 117.295 146.485 116.985 147.343 116.747C148.201 116.51 148.624 116.193 148.897 115.896C148.897 115.896 148.997 115.713 148.963 115.302C148.719 115.97 147.853 116.33 147.371 116.495Z" fill="#F0997A"/>
<path d="M117.553 80.5747C113.206 82.7911 109.71 84.9425 108.388 91.9445C107.065 98.9466 104.883 113.79 104.634 117.84C104.386 121.89 104.833 124.555 104.833 124.555C104.833 124.555 108.287 116.064 119.427 116.307L120.334 116.428C120.334 116.428 122.727 104.208 123.444 100.636C124.16 97.0638 125.415 84.7038 117.553 80.5747Z" fill="#455A64"/>
<path d="M121.375 116.563L120.333 116.428C120.333 116.428 114.561 115.947 110.574 119.017C105.189 123.164 105.457 127.218 105.457 127.218C105.457 127.218 105.925 127.81 106.176 127.995C106.176 127.995 104.771 128.235 104.232 126.673C103.731 125.221 104.189 123.365 103.986 121.795C103.825 120.552 102.505 117.868 104.838 115.618C107.56 112.993 113.155 111.381 117.152 111.825C121.149 112.27 122.006 113.222 121.597 114.195C121.186 115.167 121.788 115.692 121.375 116.563Z" fill="#37474F"/>
<path d="M220.408 181.015C216.743 179.222 210.923 183.422 210.923 185.168L199.723 178.876C199.723 177.082 206.015 172.584 209.648 174.959L220.408 181.015Z" fill="#448EFC"/>
<path opacity="0.3" d="M220.408 181.015C216.743 179.222 210.923 183.422 210.923 185.168L199.723 178.876C199.723 177.082 206.015 172.584 209.648 174.959L220.408 181.015Z" fill="white"/>
<path d="M249.445 190.909V190.924C248.455 190.406 247.07 190.437 245.293 191.475L223.9 203.839C224.891 198.884 225.19 194.621 224.623 190.673L234.124 185.168C236.091 184.019 237.57 184.114 238.592 184.806L249.445 190.909Z" fill="#448EFC"/>
<path opacity="0.3" d="M249.445 190.909V190.924C248.455 190.406 247.07 190.437 245.293 191.475L223.9 203.839C224.891 198.884 225.19 194.621 224.623 190.673L234.124 185.168C236.091 184.019 237.57 184.114 238.592 184.806L249.445 190.909Z" fill="white"/>
<path d="M200.324 273.315L189.128 266.852V220.651L200.324 227.117V273.315Z" fill="#448EFC"/>
<g opacity="0.2">
<path d="M200.324 273.315L189.128 266.852V220.651L200.324 227.117V273.315Z" fill="black"/>
</g>
<path d="M210.923 201.732C210.026 204.956 200.324 227.117 200.324 227.117L189.128 220.651C189.128 220.651 198.811 198.649 199.754 195.44C200.651 192.231 199.723 181.015 199.723 178.876L210.923 185.168C210.923 187.323 211.866 198.538 210.923 201.732Z" fill="#448EFC"/>
<path d="M200.643 227.184C201.043 226.268 205.774 215.432 208.777 208.162L208.801 208.103V208.094C209.492 206.423 210.094 204.933 210.544 203.79C210.892 202.862 211.121 202.202 211.227 201.821C211.549 200.732 211.691 198.647 211.649 195.626C211.633 194.245 211.582 192.649 211.493 190.748C211.459 189.947 211.422 189.184 211.387 188.486L211.33 187.309C211.288 186.553 211.238 185.629 211.238 185.168C211.238 184.911 211.472 184.403 212.127 183.747C213.533 182.334 216.138 180.904 218.397 180.904C219.092 180.904 219.722 181.039 220.269 181.306C221.108 181.721 221.742 182.418 222.202 183.434C223.27 185.776 223.958 188.157 224.305 190.715C224.841 194.467 224.613 198.616 223.589 203.775L223.452 204.465L245.451 191.749C246.397 191.195 247.269 190.915 248.041 190.915C248.498 190.915 248.918 191.014 249.292 191.209C250.708 191.921 251.341 193.892 251.341 195.529C251.369 199.918 248.762 203.548 247.962 204.556L247.339 205.34L248.301 205.061C248.305 205.06 248.671 204.955 249.17 204.955C250.538 204.955 252.168 205.694 252.168 209.213C252.168 212.153 250.382 216.746 247.072 219.465L246.76 219.721L247.081 219.965C247.091 219.973 248.366 221.038 248.366 224.779C248.366 227.296 245.419 233.506 242.52 235.184L242.265 235.332L242.393 235.599C242.402 235.617 243.271 237.457 243.271 240.555C243.297 244.201 240.212 249.894 235.579 252.561C231.297 255.039 204.557 270.499 200.641 272.764V227.184H200.643Z" fill="white"/>
<path d="M218.399 181.222C219.045 181.222 219.628 181.346 220.128 181.59C220.9 181.972 221.485 182.619 221.913 183.567C222.968 185.879 223.647 188.23 223.991 190.761C224.522 194.475 224.295 198.59 223.279 203.711L223.004 205.093L224.224 204.388L245.616 192.022C246.511 191.498 247.329 191.233 248.044 191.233C248.448 191.233 248.819 191.32 249.155 191.496C250.446 192.145 251.024 193.99 251.024 195.534C251.053 199.928 248.272 203.655 247.714 204.358L246.483 205.912L248.392 205.368C248.395 205.367 248.725 205.274 249.173 205.274C250.95 205.274 251.851 206.599 251.851 209.213C251.851 212.081 250.106 216.563 246.871 219.219L246.235 219.721L246.877 220.21C246.888 220.22 248.048 221.242 248.048 224.78C248.048 227.231 245.182 233.277 242.362 234.909L241.852 235.206L242.107 235.738C242.115 235.756 242.953 237.544 242.953 240.561C242.978 244.115 239.958 249.674 235.42 252.287C231.286 254.68 206.198 269.185 200.961 272.213V227.251C201.509 225.996 206.123 215.423 209.072 208.284L209.119 208.16C209.752 206.628 210.362 205.122 210.844 203.897C211.199 202.951 211.425 202.3 211.532 201.916C211.864 200.791 212.01 198.674 211.967 195.624C211.952 194.246 211.901 192.647 211.812 190.736C211.777 189.915 211.738 189.136 211.703 188.425C211.683 188.024 211.664 187.646 211.647 187.289C211.605 186.542 211.557 185.627 211.557 185.169C211.557 185.03 211.724 184.603 212.354 183.972C213.714 182.605 216.227 181.222 218.399 181.222ZM218.398 180.584C215.989 180.584 213.31 182.106 211.903 183.52C211.294 184.13 210.921 184.73 210.921 185.167C210.921 185.585 210.957 186.35 211.011 187.323C211.056 188.297 211.12 189.48 211.175 190.762C211.248 192.327 211.312 194.019 211.33 195.629C211.366 198.195 211.275 200.533 210.92 201.734C210.811 202.125 210.574 202.799 210.247 203.672C209.792 204.827 209.183 206.338 208.481 208.03C208.481 208.039 208.481 208.039 208.481 208.039C205.325 215.682 200.323 227.117 200.323 227.117V273.317C200.323 273.317 231.117 255.513 235.739 252.837C240.37 250.172 243.618 244.413 243.591 240.555C243.591 237.335 242.681 235.46 242.681 235.46C245.683 233.722 248.686 227.445 248.686 224.78C248.686 220.786 247.276 219.712 247.276 219.712C250.533 217.037 252.489 212.443 252.489 209.213C252.489 205.244 250.433 204.636 249.172 204.636C248.615 204.636 248.213 204.755 248.213 204.755C249.368 203.299 251.688 199.687 251.661 195.529C251.661 193.764 250.979 191.699 249.442 190.925C249.04 190.715 248.574 190.595 248.044 190.595C247.266 190.595 246.349 190.855 245.293 191.471L223.904 203.836C224.886 198.886 225.187 194.62 224.622 190.671C224.276 188.124 223.585 185.695 222.493 183.302C221.975 182.155 221.256 181.437 220.41 181.018C219.789 180.715 219.105 180.584 218.398 180.584Z" fill="#448EFC"/>
<path d="M195.224 231.078C195.224 230.417 194.988 229.709 194.626 229.064C194.249 228.435 193.745 227.869 193.179 227.539L186.069 223.433C184.937 222.788 183.128 222.788 181.995 223.433H181.979L170.638 229.993C170.072 230.323 169.553 230.889 169.191 231.518C168.829 232.163 168.593 232.887 168.593 233.532V282.594C168.593 283.899 169.506 285.488 170.638 286.133L177.748 290.238C178.314 290.569 179.053 290.726 179.793 290.726C180.532 290.726 181.256 290.569 181.822 290.254C181.822 290.238 181.838 290.238 181.838 290.238L193.211 283.663C194.343 283.018 195.255 281.445 195.255 280.14V280.124L195.224 231.078Z" fill="#448EFC"/>
<path opacity="0.2" d="M179.793 237.637V290.726C179.053 290.726 178.314 290.569 177.748 290.239L170.638 286.133C169.506 285.488 168.593 283.9 168.593 282.594V233.532C168.593 232.887 168.829 232.164 169.191 231.519L179.793 237.637Z" fill="black"/>
<path opacity="0.3" d="M194.626 229.064L179.793 237.637L169.19 231.518C169.552 230.889 170.072 230.322 170.637 229.992L181.979 223.432H181.994C183.127 222.787 184.936 222.787 186.069 223.432L193.179 227.538C193.745 227.869 194.249 228.435 194.626 229.064Z" fill="white"/>
<path d="M273.509 151.58C273.509 151.692 273.593 151.787 273.705 151.8L276.966 152.16C277.28 152.194 277.529 152.449 277.557 152.763L277.933 156.923C277.942 157.038 278.038 157.124 278.152 157.124C278.266 157.124 278.362 157.038 278.371 156.923L278.747 152.764C278.775 152.449 279.024 152.195 279.338 152.161L282.598 151.8C282.71 151.788 282.794 151.693 282.794 151.581C282.794 151.469 282.71 151.374 282.598 151.361L279.338 151.001C279.024 150.967 278.775 150.713 278.747 150.398L278.371 146.238C278.362 146.123 278.266 146.037 278.152 146.037C278.038 146.037 277.942 146.123 277.933 146.238L277.557 150.397C277.529 150.712 277.28 150.966 276.966 151L273.705 151.361C273.593 151.373 273.509 151.468 273.509 151.58Z" fill="#F0F0F0"/>
<path d="M234.692 27.0179C234.692 27.1302 234.777 27.2247 234.888 27.2374L238.149 27.5979C238.464 27.6317 238.712 27.8863 238.74 28.2008L239.116 32.3612C239.125 32.4754 239.221 32.5622 239.335 32.5622C239.449 32.5622 239.545 32.4754 239.555 32.3612L239.93 28.2021C239.958 27.8869 240.207 27.633 240.521 27.5985L243.781 27.2381C243.893 27.2253 243.977 27.1309 243.977 27.0186C243.977 26.9057 243.893 26.8119 243.781 26.7991L240.521 26.4386C240.207 26.4048 239.958 26.1503 239.93 25.8357L239.555 21.6753C239.545 21.5611 239.449 21.4744 239.335 21.4744C239.221 21.4744 239.125 21.5611 239.116 21.6753L238.74 25.8345C238.712 26.1496 238.464 26.4042 238.149 26.438L234.888 26.7985C234.777 26.8112 234.692 26.905 234.692 27.0179Z" fill="#F0F0F0"/>
<path d="M264.099 96.8634C264.099 96.9757 264.183 97.0701 264.295 97.0829L267.556 97.4434C267.87 97.4772 268.119 97.7317 268.147 98.0463L268.522 102.207C268.532 102.321 268.628 102.408 268.742 102.408C268.856 102.408 268.952 102.321 268.961 102.207L269.336 98.0475C269.365 97.7324 269.613 97.4778 269.928 97.444L273.188 97.0835C273.3 97.0708 273.384 96.9763 273.384 96.864C273.384 96.7518 273.3 96.6573 273.188 96.6446L269.928 96.2841C269.613 96.2503 269.365 95.9957 269.336 95.6812L268.961 91.5208C268.952 91.4066 268.856 91.3198 268.742 91.3198C268.628 91.3198 268.532 91.4066 268.522 91.5208L268.147 95.6799C268.119 95.9951 267.87 96.2496 267.556 96.2835L264.295 96.6439C264.183 96.6567 264.099 96.7505 264.099 96.8634Z" fill="#F0F0F0"/>
<path d="M269.887 66.9747C269.887 67.117 269.993 67.2357 270.134 67.2516L274.248 67.7065C274.645 67.7492 274.958 68.0702 274.994 68.467L275.467 73.7158C275.479 73.86 275.6 73.9691 275.744 73.9691C275.888 73.9691 276.009 73.86 276.021 73.7158L276.495 68.4683C276.53 68.0708 276.844 67.7499 277.24 67.7071L281.354 67.2522C281.495 67.2357 281.6 67.117 281.6 66.9753C281.6 66.8331 281.495 66.7144 281.354 66.6985L277.24 66.2436C276.843 66.2008 276.531 65.8799 276.495 65.4831L276.021 60.2342C276.009 60.0901 275.888 59.981 275.744 59.981C275.6 59.981 275.479 60.0907 275.467 60.2342L274.994 65.4818C274.958 65.8793 274.644 66.2002 274.248 66.2436L270.134 66.6985C269.993 66.7138 269.887 66.8324 269.887 66.9747Z" fill="#F0F0F0"/>
<path d="M242.399 132.723C242.399 132.841 242.488 132.94 242.605 132.953L247.63 133.508C248.165 133.567 248.589 134 248.637 134.536L249.214 140.947C249.225 141.066 249.325 141.158 249.445 141.158C249.565 141.158 249.665 141.067 249.676 140.947L250.253 134.536C250.301 134 250.725 133.568 251.261 133.508L256.285 132.953C256.402 132.94 256.491 132.841 256.491 132.723C256.491 132.605 256.402 132.506 256.285 132.492L251.261 131.937C250.725 131.879 250.301 131.446 250.253 130.909L249.676 124.499C249.665 124.379 249.566 124.288 249.445 124.288C249.325 124.288 249.226 124.379 249.214 124.499L248.637 130.909C248.589 131.445 248.165 131.878 247.63 131.937L242.605 132.492C242.488 132.505 242.399 132.605 242.399 132.723Z" fill="#F0F0F0"/>
<path d="M281.601 86.0437C281.601 86.1618 281.69 86.2607 281.807 86.2741L286.832 86.8291C287.367 86.8884 287.791 87.321 287.839 87.8569L288.416 94.2682C288.427 94.3875 288.527 94.4794 288.647 94.4794C288.766 94.4794 288.867 94.3881 288.877 94.2682L289.455 87.8569C289.503 87.321 289.927 86.8891 290.462 86.8291L295.486 86.2741C295.604 86.2613 295.693 86.1618 295.693 86.0437C295.693 85.9257 295.604 85.8268 295.486 85.8134L290.462 85.2584C289.927 85.1997 289.503 84.7671 289.455 84.2312L288.877 77.8206C288.867 77.7012 288.766 77.6094 288.647 77.6094C288.527 77.6094 288.427 77.7012 288.416 77.8206L287.839 84.2312C287.791 84.7671 287.367 85.1997 286.832 85.2584L281.807 85.8134C281.69 85.8268 281.601 85.9257 281.601 86.0437Z" fill="#F0F0F0"/>
<path d="M33.2711 159.432L30.0103 159.071C29.6957 159.037 29.4475 158.783 29.4188 158.468L29.0437 154.308C29.0341 154.194 28.9384 154.107 28.8242 154.107C28.71 154.107 28.6143 154.194 28.6047 154.308L28.2296 158.469C28.2009 158.783 27.9527 159.037 27.6382 159.072L24.378 159.432C24.2663 159.445 24.1821 159.539 24.1821 159.652C24.1821 159.764 24.2663 159.858 24.378 159.871L27.6382 160.232C27.9527 160.265 28.2015 160.52 28.2296 160.835L28.6047 164.994C28.6143 165.108 28.71 165.195 28.8242 165.195C28.9384 165.195 29.0341 165.108 29.0437 164.994L29.4188 160.834C29.4469 160.519 29.6957 160.265 30.0103 160.231L33.2711 159.87C33.3827 159.858 33.4669 159.763 33.4669 159.651C33.4669 159.539 33.3827 159.444 33.2711 159.432Z" fill="#F0F0F0"/>
<path d="M69.15 30.0619L65.8892 29.7014C65.5746 29.6676 65.3264 29.4131 65.2977 29.0979L64.9226 24.9388C64.913 24.8246 64.8173 24.7378 64.7031 24.7378C64.5889 24.7378 64.4932 24.8246 64.4837 24.9388L64.1085 29.0992C64.0798 29.4137 63.8316 29.6676 63.5171 29.7021L60.2569 30.0625C60.1453 30.0753 60.061 30.1691 60.061 30.282C60.061 30.3943 60.1453 30.4887 60.2569 30.5015L63.5171 30.862C63.8316 30.8958 64.0804 31.1503 64.1085 31.4655L64.4837 35.6246C64.4932 35.7388 64.5889 35.8256 64.7031 35.8256C64.8173 35.8256 64.913 35.7388 64.9226 35.6246L65.2977 31.4642C65.3258 31.1497 65.5746 30.8958 65.8892 30.8613L69.15 30.5008C69.2616 30.4881 69.3458 30.3937 69.3458 30.2814C69.3458 30.1685 69.2623 30.0747 69.15 30.0619Z" fill="#F0F0F0"/>
<path d="M31.2017 117.373L27.9409 117.013C27.6264 116.979 27.3782 116.725 27.3495 116.409L26.9744 112.25C26.9648 112.136 26.8691 112.049 26.7549 112.049C26.6407 112.049 26.545 112.136 26.5354 112.25L26.1603 116.411C26.1316 116.725 25.8834 116.979 25.5688 117.014L22.3087 117.374C22.197 117.387 22.1128 117.481 22.1128 117.594C22.1128 117.706 22.197 117.8 22.3087 117.813L25.5688 118.173C25.8834 118.207 26.1322 118.462 26.1603 118.777L26.5354 122.936C26.545 123.05 26.6407 123.137 26.7549 123.137C26.8691 123.137 26.9648 123.05 26.9744 122.936L27.3495 118.776C27.3776 118.461 27.6264 118.207 27.9409 118.173L31.2017 117.812C31.3134 117.8 31.3976 117.705 31.3976 117.593C31.3976 117.48 31.3134 117.386 31.2017 117.373Z" fill="#F0F0F0"/>
<path d="M30.1486 51.9638L26.0341 51.5089C25.6373 51.4662 25.324 51.1453 25.2883 50.7472L24.8149 45.4996C24.8028 45.3554 24.6822 45.2463 24.538 45.2463C24.3938 45.2463 24.2732 45.3561 24.2611 45.4996L23.7877 50.7485C23.7513 51.1446 23.4381 51.4662 23.0412 51.5089L18.9281 51.9638C18.7871 51.9804 18.6812 52.0985 18.6812 52.2407C18.6812 52.3824 18.7871 52.5017 18.9281 52.5176L23.0412 52.9725C23.4381 53.0153 23.752 53.3362 23.7877 53.7337L24.2611 58.9812C24.2732 59.1254 24.3938 59.2345 24.538 59.2345C24.6822 59.2345 24.8028 59.1254 24.8149 58.9812L25.2883 53.7324C25.324 53.3362 25.6379 53.0153 26.0341 52.9719L30.1486 52.517C30.2896 52.501 30.3961 52.3817 30.3961 52.2401C30.3961 52.0985 30.2896 51.9804 30.1486 51.9638Z" fill="#F0F0F0"/>
<path d="M57.5003 142.045L52.4754 141.49C51.9402 141.431 51.5165 140.999 51.4687 140.462L50.8913 134.052C50.8804 133.932 50.7803 133.84 50.6603 133.84C50.5404 133.84 50.4402 133.932 50.4294 134.052L49.852 140.462C49.8041 140.998 49.3799 141.431 48.8446 141.49L43.8203 142.045C43.7029 142.058 43.6143 142.157 43.6143 142.275C43.6143 142.393 43.7029 142.492 43.8203 142.506L48.8446 143.061C49.3799 143.12 49.8041 143.553 49.852 144.089L50.4294 150.5C50.4402 150.619 50.5404 150.71 50.6603 150.71C50.7803 150.71 50.8798 150.619 50.8913 150.5L51.4687 144.089C51.5165 143.553 51.9402 143.121 52.4754 143.061L57.5003 142.506C57.6177 142.493 57.7064 142.393 57.7064 142.275C57.7064 142.157 57.6171 142.058 57.5003 142.045Z" fill="#F0F0F0"/>
<path d="M50.4544 79.3709L45.4295 78.8159C44.8943 78.7572 44.4706 78.3246 44.4228 77.7881L43.8454 71.3774C43.8345 71.2581 43.7344 71.1663 43.6144 71.1663C43.4945 71.1663 43.3943 71.2581 43.3835 71.3774L42.8061 77.7881C42.7582 78.324 42.334 78.7565 41.7987 78.8159L36.7744 79.3709C36.657 79.3837 36.5684 79.4832 36.5684 79.6013C36.5684 79.7193 36.657 79.8182 36.7744 79.8316L41.7987 80.3866C42.334 80.446 42.7582 80.8785 42.8061 81.4145L43.3835 87.8257C43.3943 87.945 43.4945 88.0369 43.6144 88.0369C43.7344 88.0369 43.8339 87.9457 43.8454 87.8257L44.4228 81.4145C44.4706 80.8785 44.8943 80.4466 45.4295 80.3866L50.4544 79.8316C50.5718 79.8188 50.6611 79.7193 50.6611 79.6013C50.6611 79.4832 50.5718 79.3837 50.4544 79.3709Z" fill="#F0F0F0"/>
</svg>
