<svg width="168" height="39" viewBox="0 0 168 39" fill="none" xmlns="http://www.w3.org/2000/svg">
<path d="M14.3063 10.852V13.79H9.47034V29H5.83034V13.79H0.994344V10.852H14.3063ZM24.5542 14.388C25.6462 14.388 26.6169 14.6307 27.4662 15.116C28.3155 15.584 28.9742 16.286 29.4422 17.222C29.9275 18.1407 30.1702 19.25 30.1702 20.55V29H26.5302V21.044C26.5302 19.9 26.2442 19.0247 25.6722 18.418C25.1002 17.794 24.3202 17.482 23.3322 17.482C22.3269 17.482 21.5295 17.794 20.9402 18.418C20.3682 19.0247 20.0822 19.9 20.0822 21.044V29H16.4422V9.76H20.0822V16.39C20.5502 15.766 21.1742 15.2807 21.9542 14.934C22.7342 14.57 23.6009 14.388 24.5542 14.388Z" fill="url(#paint0_linear_534_157)"/>
<path d="M48 24.4297C50.3912 23.0465 52 20.4611 52 17.5C52 13.0817 48.4183 9.5 44 9.5C39.5817 9.5 36 13.0817 36 17.5C36 20.4611 37.6088 23.0465 40 24.4297V25.5C40 26.0523 40.4477 26.5 41 26.5H47C47.5523 26.5 48 26.0523 48 25.5V24.4297Z" fill="#CDE6FF"/>
<path d="M41 26.5H47V27.5C47 28.6046 46.1046 29.5 45 29.5H43C41.8954 29.5 41 28.6046 41 27.5V26.5Z" fill="#FFA947"/>
<path d="M42.7071 17.7929C42.3166 17.4024 41.6834 17.4024 41.2929 17.7929C40.9024 18.1834 40.9024 18.8166 41.2929 19.2071L43 20.9142V26.5H45V20.9142L46.7071 19.2071C47.0976 18.8166 47.0976 18.1834 46.7071 17.7929C46.3166 17.4024 45.6834 17.4024 45.2929 17.7929L44 19.0858L42.7071 17.7929Z" fill="#FFA947"/>
<path d="M65.9212 14.388C67.6372 14.388 69.0239 14.934 70.0812 16.026C71.1385 17.1007 71.6672 18.6087 71.6672 20.55V29H68.0272V21.044C68.0272 19.9 67.7412 19.0247 67.1692 18.418C66.5972 17.794 65.8172 17.482 64.8292 17.482C63.8239 17.482 63.0265 17.794 62.4372 18.418C61.8652 19.0247 61.5792 19.9 61.5792 21.044V29H57.9392V14.596H61.5792V16.39C62.0645 15.766 62.6799 15.2807 63.4252 14.934C64.1879 14.57 65.0199 14.388 65.9212 14.388ZM83.1366 29L78.2486 22.864V29H74.6086V9.76H78.2486V20.706L83.0846 14.596H87.8166L81.4726 21.824L87.8686 29H83.1366ZM101.214 29.182C99.9482 29.182 98.8042 28.9653 97.7816 28.532C96.7762 28.0987 95.9789 27.4747 95.3896 26.66C94.8002 25.8453 94.4969 24.8833 94.4796 23.774H98.3796C98.4316 24.5193 98.6916 25.1087 99.1596 25.542C99.6449 25.9753 100.304 26.192 101.136 26.192C101.985 26.192 102.652 25.9927 103.138 25.594C103.623 25.178 103.866 24.6407 103.866 23.982C103.866 23.4447 103.701 23.0027 103.372 22.656C103.042 22.3093 102.626 22.0407 102.124 21.85C101.638 21.642 100.962 21.4167 100.096 21.174C98.9169 20.8273 97.9549 20.4893 97.2096 20.16C96.4816 19.8133 95.8489 19.302 95.3116 18.626C94.7916 17.9327 94.5316 17.014 94.5316 15.87C94.5316 14.7953 94.8002 13.8593 95.3376 13.062C95.8749 12.2647 96.6289 11.658 97.5996 11.242C98.5702 10.8087 99.6796 10.592 100.928 10.592C102.8 10.592 104.316 11.0513 105.478 11.97C106.656 12.8713 107.306 14.1367 107.428 15.766H103.424C103.389 15.142 103.12 14.6307 102.618 14.232C102.132 13.816 101.482 13.608 100.668 13.608C99.9569 13.608 99.3849 13.79 98.9516 14.154C98.5356 14.518 98.3276 15.0467 98.3276 15.74C98.3276 16.2253 98.4836 16.6327 98.7956 16.962C99.1249 17.274 99.5236 17.534 99.9916 17.742C100.477 17.9327 101.153 18.158 102.02 18.418C103.198 18.7647 104.16 19.1113 104.906 19.458C105.651 19.8047 106.292 20.3247 106.83 21.018C107.367 21.7113 107.636 22.6213 107.636 23.748C107.636 24.7187 107.384 25.62 106.882 26.452C106.379 27.284 105.642 27.9513 104.672 28.454C103.701 28.9393 102.548 29.182 101.214 29.182ZM113.911 16.676C114.379 16.0173 115.021 15.4713 115.835 15.038C116.667 14.5873 117.612 14.362 118.669 14.362C119.9 14.362 121.009 14.6653 121.997 15.272C123.003 15.8787 123.791 16.7453 124.363 17.872C124.953 18.9813 125.247 20.2727 125.247 21.746C125.247 23.2193 124.953 24.528 124.363 25.672C123.791 26.7987 123.003 27.674 121.997 28.298C121.009 28.922 119.9 29.234 118.669 29.234C117.612 29.234 116.676 29.0173 115.861 28.584C115.064 28.1507 114.414 27.6047 113.911 26.946V35.864H110.271V14.596H113.911V16.676ZM121.529 21.746C121.529 20.8793 121.347 20.134 120.983 19.51C120.637 18.8687 120.169 18.3833 119.579 18.054C119.007 17.7247 118.383 17.56 117.707 17.56C117.049 17.56 116.425 17.7333 115.835 18.08C115.263 18.4093 114.795 18.8947 114.431 19.536C114.085 20.1773 113.911 20.9313 113.911 21.798C113.911 22.6647 114.085 23.4187 114.431 24.06C114.795 24.7013 115.263 25.1953 115.835 25.542C116.425 25.8713 117.049 26.036 117.707 26.036C118.383 26.036 119.007 25.8627 119.579 25.516C120.169 25.1693 120.637 24.6753 120.983 24.034C121.347 23.3927 121.529 22.63 121.529 21.746ZM126.436 21.746C126.436 20.29 126.722 18.9987 127.294 17.872C127.884 16.7453 128.672 15.8787 129.66 15.272C130.666 14.6653 131.784 14.362 133.014 14.362C134.089 14.362 135.025 14.5787 135.822 15.012C136.637 15.4453 137.287 15.9913 137.772 16.65V14.596H141.438V29H137.772V26.894C137.304 27.57 136.654 28.1333 135.822 28.584C135.008 29.0173 134.063 29.234 132.988 29.234C131.775 29.234 130.666 28.922 129.66 28.298C128.672 27.674 127.884 26.7987 127.294 25.672C126.722 24.528 126.436 23.2193 126.436 21.746ZM137.772 21.798C137.772 20.914 137.599 20.16 137.252 19.536C136.906 18.8947 136.438 18.4093 135.848 18.08C135.259 17.7333 134.626 17.56 133.95 17.56C133.274 17.56 132.65 17.7247 132.078 18.054C131.506 18.3833 131.038 18.8687 130.674 19.51C130.328 20.134 130.154 20.8793 130.154 21.746C130.154 22.6127 130.328 23.3753 130.674 24.034C131.038 24.6753 131.506 25.1693 132.078 25.516C132.668 25.8627 133.292 26.036 133.95 26.036C134.626 26.036 135.259 25.8713 135.848 25.542C136.438 25.1953 136.906 24.71 137.252 24.086C137.599 23.4447 137.772 22.682 137.772 21.798ZM148.113 16.832C148.581 16.0693 149.188 15.4713 149.933 15.038C150.696 14.6047 151.563 14.388 152.533 14.388V18.21H151.571C150.427 18.21 149.561 18.4787 148.971 19.016C148.399 19.5533 148.113 20.4893 148.113 21.824V29H144.473V14.596H148.113V16.832ZM162.993 29L158.105 22.864V29H154.465V9.76H158.105V20.706L162.941 14.596H167.673L161.329 21.824L167.725 29H162.993Z" fill="url(#paint1_linear_534_157)"/>
<defs>
<linearGradient id="paint0_linear_534_157" x1="16" y1="0" x2="16" y2="39" gradientUnits="userSpaceOnUse">
<stop stop-color="#356899"/>
<stop offset="1" stop-color="#1A334C"/>
</linearGradient>
<linearGradient id="paint1_linear_534_157" x1="112" y1="0" x2="112" y2="39" gradientUnits="userSpaceOnUse">
<stop stop-color="#356899"/>
<stop offset="1" stop-color="#1A334C"/>
</linearGradient>
</defs>
</svg>
