<svg width="281" height="60" viewBox="0 0 281 60" fill="none" xmlns="http://www.w3.org/2000/svg">
<path d="M39.8944 16.08V20.6H32.4544V44H26.8544V20.6H19.4144V16.08H39.8944ZM55.6603 21.52C57.3403 21.52 58.8336 21.8933 60.1403 22.64C61.447 23.36 62.4603 24.44 63.1803 25.88C63.927 27.2933 64.3003 29 64.3003 31V44H58.7003V31.76C58.7003 30 58.2603 28.6533 57.3803 27.72C56.5003 26.76 55.3003 26.28 53.7803 26.28C52.2336 26.28 51.007 26.76 50.1003 27.72C49.2203 28.6533 48.7803 30 48.7803 31.76V44H43.1803V14.4H48.7803V24.6C49.5003 23.64 50.4603 22.8933 51.6603 22.36C52.8603 21.8 54.1936 21.52 55.6603 21.52Z" fill="white"/>
<path d="M83 34.9297C85.3912 33.5465 87 30.9611 87 28C87 23.5817 83.4183 20 79 20C74.5817 20 71 23.5817 71 28C71 30.9611 72.6088 33.5465 75 34.9297V36C75 36.5523 75.4477 37 76 37H82C82.5523 37 83 36.5523 83 36V34.9297Z" fill="white"/>
<path d="M76 37H82V38C82 39.1046 81.1046 40 80 40H78C76.8954 40 76 39.1046 76 38V37Z" fill="#FFA947"/>
<path d="M77.7071 28.2929C77.3166 27.9024 76.6834 27.9024 76.2929 28.2929C75.9024 28.6834 75.9024 29.3166 76.2929 29.7071L78 31.4142V37H80V31.4142L81.7071 29.7071C82.0976 29.3166 82.0976 28.6834 81.7071 28.2929C81.3166 27.9024 80.6834 27.9024 80.2929 28.2929L79 29.5858L77.7071 28.2929Z" fill="#FFA947"/>
<path d="M106.11 21.52C108.75 21.52 110.883 22.36 112.51 24.04C114.136 25.6933 114.95 28.0133 114.95 31V44H109.35V31.76C109.35 30 108.91 28.6533 108.03 27.72C107.15 26.76 105.95 26.28 104.43 26.28C102.883 26.28 101.656 26.76 100.75 27.72C99.8695 28.6533 99.4295 30 99.4295 31.76V44H93.8295V21.84H99.4295V24.6C100.176 23.64 101.123 22.8933 102.27 22.36C103.443 21.8 104.723 21.52 106.11 21.52ZM132.595 44L125.075 34.56V44H119.475V14.4H125.075V31.24L132.515 21.84H139.795L130.035 32.96L139.875 44H132.595ZM160.405 44.28C158.459 44.28 156.699 43.9467 155.125 43.28C153.579 42.6133 152.352 41.6533 151.445 40.4C150.539 39.1467 150.072 37.6667 150.045 35.96H156.045C156.125 37.1067 156.525 38.0133 157.245 38.68C157.992 39.3467 159.005 39.68 160.285 39.68C161.592 39.68 162.619 39.3733 163.365 38.76C164.112 38.12 164.485 37.2933 164.485 36.28C164.485 35.4533 164.232 34.7733 163.725 34.24C163.219 33.7067 162.579 33.2933 161.805 33C161.059 32.68 160.019 32.3333 158.685 31.96C156.872 31.4267 155.392 30.9067 154.245 30.4C153.125 29.8667 152.152 29.08 151.325 28.04C150.525 26.9733 150.125 25.56 150.125 23.8C150.125 22.1467 150.539 20.7067 151.365 19.48C152.192 18.2533 153.352 17.32 154.845 16.68C156.339 16.0133 158.045 15.68 159.965 15.68C162.845 15.68 165.179 16.3867 166.965 17.8C168.779 19.1867 169.779 21.1333 169.965 23.64H163.805C163.752 22.68 163.339 21.8933 162.565 21.28C161.819 20.64 160.819 20.32 159.565 20.32C158.472 20.32 157.592 20.6 156.925 21.16C156.285 21.72 155.965 22.5333 155.965 23.6C155.965 24.3467 156.205 24.9733 156.685 25.48C157.192 25.96 157.805 26.36 158.525 26.68C159.272 26.9733 160.312 27.32 161.645 27.72C163.459 28.2533 164.939 28.7867 166.085 29.32C167.232 29.8533 168.219 30.6533 169.045 31.72C169.872 32.7867 170.285 34.1867 170.285 35.92C170.285 37.4133 169.899 38.8 169.125 40.08C168.352 41.36 167.219 42.3867 165.725 43.16C164.232 43.9067 162.459 44.28 160.405 44.28ZM179.94 25.04C180.66 24.0267 181.647 23.1867 182.9 22.52C184.18 21.8267 185.634 21.48 187.26 21.48C189.154 21.48 190.86 21.9467 192.38 22.88C193.927 23.8133 195.14 25.1467 196.02 26.88C196.927 28.5867 197.38 30.5733 197.38 32.84C197.38 35.1067 196.927 37.12 196.02 38.88C195.14 40.6133 193.927 41.96 192.38 42.92C190.86 43.88 189.154 44.36 187.26 44.36C185.634 44.36 184.194 44.0267 182.94 43.36C181.714 42.6933 180.714 41.8533 179.94 40.84V54.56H174.34V21.84H179.94V25.04ZM191.66 32.84C191.66 31.5067 191.38 30.36 190.82 29.4C190.287 28.4133 189.567 27.6667 188.66 27.16C187.78 26.6533 186.82 26.4 185.78 26.4C184.767 26.4 183.807 26.6667 182.9 27.2C182.02 27.7067 181.3 28.4533 180.74 29.44C180.207 30.4267 179.94 31.5867 179.94 32.92C179.94 34.2533 180.207 35.4133 180.74 36.4C181.3 37.3867 182.02 38.1467 182.9 38.68C183.807 39.1867 184.767 39.44 185.78 39.44C186.82 39.44 187.78 39.1733 188.66 38.64C189.567 38.1067 190.287 37.3467 190.82 36.36C191.38 35.3733 191.66 34.2 191.66 32.84ZM199.21 32.84C199.21 30.6 199.65 28.6133 200.53 26.88C201.437 25.1467 202.65 23.8133 204.17 22.88C205.717 21.9467 207.437 21.48 209.33 21.48C210.983 21.48 212.423 21.8133 213.65 22.48C214.903 23.1467 215.903 23.9867 216.65 25V21.84H222.29V44H216.65V40.76C215.93 41.8 214.93 42.6667 213.65 43.36C212.397 44.0267 210.943 44.36 209.29 44.36C207.423 44.36 205.717 43.88 204.17 42.92C202.65 41.96 201.437 40.6133 200.53 38.88C199.65 37.12 199.21 35.1067 199.21 32.84ZM216.65 32.92C216.65 31.56 216.383 30.4 215.85 29.44C215.317 28.4533 214.597 27.7067 213.69 27.2C212.783 26.6667 211.81 26.4 210.77 26.4C209.73 26.4 208.77 26.6533 207.89 27.16C207.01 27.6667 206.29 28.4133 205.73 29.4C205.197 30.36 204.93 31.5067 204.93 32.84C204.93 34.1733 205.197 35.3467 205.73 36.36C206.29 37.3467 207.01 38.1067 207.89 38.64C208.797 39.1733 209.757 39.44 210.77 39.44C211.81 39.44 212.783 39.1867 213.69 38.68C214.597 38.1467 215.317 37.4 215.85 36.44C216.383 35.4533 216.65 34.28 216.65 32.92ZM232.559 25.28C233.279 24.1067 234.213 23.1867 235.359 22.52C236.533 21.8533 237.866 21.52 239.359 21.52V27.4H237.879C236.119 27.4 234.786 27.8133 233.879 28.64C232.999 29.4667 232.559 30.9067 232.559 32.96V44H226.959V21.84H232.559V25.28ZM255.451 44L247.931 34.56V44H242.331V14.4H247.931V31.24L255.371 21.84H262.651L252.891 32.96L262.731 44H255.451Z" fill="white"/>
</svg>
