<svg width="28" height="28" viewBox="0 0 28 28" fill="none" xmlns="http://www.w3.org/2000/svg">
<path d="M25.4397 11.7157H24.4999V11.6673H13.9999V16.334H20.5933C19.6314 19.0506 17.0467 21.0007 13.9999 21.0007C10.1342 21.0007 6.99992 17.8664 6.99992 14.0007C6.99992 10.1349 10.1342 7.00065 13.9999 7.00065C15.7843 7.00065 17.4078 7.67382 18.6438 8.7734L21.9438 5.47348C19.8601 3.53157 17.0729 2.33398 13.9999 2.33398C7.557 2.33398 2.33325 7.55773 2.33325 14.0007C2.33325 20.4436 7.557 25.6673 13.9999 25.6673C20.4428 25.6673 25.6666 20.4436 25.6666 14.0007C25.6666 13.2184 25.5861 12.4548 25.4397 11.7157Z" fill="#FFC107"/>
<path d="M3.67847 8.5704L7.51155 11.3815C8.54872 8.81365 11.0606 7.00065 14 7.00065C15.7844 7.00065 17.4078 7.67382 18.6439 8.7734L21.9438 5.47348C19.8601 3.53157 17.073 2.33398 14 2.33398C9.5188 2.33398 5.63263 4.8639 3.67847 8.5704Z" fill="#FF3D00"/>
<path d="M14 25.6671C17.0135 25.6671 19.7517 24.5138 21.8219 22.6384L18.2111 19.5829C17.0004 20.5036 15.521 21.0016 14 21.0004C10.9655 21.0004 8.38894 19.0655 7.41827 16.3652L3.61377 19.2965C5.5446 23.0747 9.46577 25.6671 14 25.6671Z" fill="#0E9D57"/>
<path d="M25.4398 11.7144H24.5V11.666H14V16.3327H20.5934C20.1333 17.6256 19.3045 18.7554 18.2093 19.5824L18.2111 19.5813L21.8219 22.6368C21.5664 22.8689 25.6667 19.8327 25.6667 13.9993C25.6667 13.2171 25.5862 12.4535 25.4398 11.7144Z" fill="#1976D2"/>
</svg>
