<svg width="24" height="24" viewBox="0 0 24 24" fill="none" xmlns="http://www.w3.org/2000/svg">
<path d="M12.6708 3.21695C12.2485 3.00581 11.7515 3.00581 11.3292 3.21695L5.82918 5.96695C5.321 6.22104 5 6.74044 5 7.30859V17.9996C5 19.6564 6.34315 20.9996 8 20.9996H16C17.6569 20.9996 19 19.6564 19 17.9996V7.30859C19 6.74044 18.679 6.22104 18.1708 5.96695L12.6708 3.21695Z" fill="#CDCDD0"/>
<path fill-rule="evenodd" clip-rule="evenodd" d="M14 21H10V17C10 15.8954 10.8954 15 12 15C13.1046 15 14 15.8954 14 17V21Z" fill="#448EFC"/>
<path fill-rule="evenodd" clip-rule="evenodd" d="M3.10555 8.44699C3.35254 8.94097 3.95321 9.1412 4.44719 8.89421L12 5.11781L19.5528 8.89421C20.0467 9.1412 20.6474 8.94097 20.8944 8.44699C21.1414 7.95302 20.9412 7.35234 20.4472 7.10535L12.4472 3.10535C12.1657 2.96459 11.8343 2.96459 11.5528 3.10535L3.55276 7.10535C3.05878 7.35234 2.85856 7.95302 3.10555 8.44699Z" fill="#448EFC"/>
</svg>
