<svg width="19" height="19" viewBox="0 0 19 19" fill="none" xmlns="http://www.w3.org/2000/svg">
<path fill-rule="evenodd" clip-rule="evenodd" d="M2.38335 13.3052C2.23135 13.3052 2.07935 13.2474 1.96376 13.1311C1.73181 12.8991 1.73181 12.5239 1.96376 12.2919L3.04439 11.2105C3.27635 10.9793 3.65239 10.9793 3.88435 11.2105C4.11551 11.4424 4.11551 11.8185 3.88435 12.0504L2.80293 13.1311C2.68735 13.2474 2.53535 13.3052 2.38335 13.3052ZM5.36096 14.2492C5.20896 14.2492 5.05696 14.1914 4.94138 14.0751C4.70942 13.8431 4.70942 13.4678 4.94138 13.2359L6.02201 12.1545C6.25396 11.9233 6.63001 11.9233 6.86196 12.1545C7.09313 12.3864 7.09313 12.7625 6.86196 12.9944L5.78055 14.0751C5.66496 14.1914 5.51296 14.2492 5.36096 14.2492ZM5.56181 17.0739C5.67739 17.1903 5.82939 17.2481 5.98139 17.2481C6.13339 17.2481 6.28539 17.1903 6.40098 17.0739L7.48239 15.9933C7.71356 15.7613 7.71356 15.3853 7.48239 15.1533C7.25043 14.9221 6.87439 14.9221 6.64243 15.1533L5.56181 16.2347C5.32985 16.4667 5.32985 16.8419 5.56181 17.0739Z" fill="#CDCDD0"/>
<path fill-rule="evenodd" clip-rule="evenodd" d="M16.9633 2.0418C16.5675 1.63726 15.9816 1.48764 15.4354 1.64597L2.69746 5.32643C2.12113 5.48635 1.71263 5.94314 1.60258 6.52264C1.49017 7.11322 1.88283 7.86372 2.39583 8.17722L6.37871 10.6092C6.78721 10.8594 7.31446 10.7968 7.6525 10.458L12.2133 5.89722C12.4429 5.65893 12.8229 5.65893 13.0525 5.89722C13.282 6.12601 13.282 6.49889 13.0525 6.73639L8.48375 11.2972C8.14492 11.636 8.08158 12.1617 8.33096 12.571L10.7645 16.5689C11.0495 17.0431 11.5404 17.3131 12.0787 17.3131C12.142 17.3131 12.2133 17.3131 12.2766 17.3043C12.8941 17.226 13.385 16.8056 13.567 16.2118L17.3433 3.56972C17.5095 3.03139 17.3591 2.44555 16.9633 2.0418Z" fill="#448EFC"/>
</svg>
