<svg width="199" height="137" viewBox="0 0 199 137" fill="none" xmlns="http://www.w3.org/2000/svg">
<g opacity="0.3">
<circle opacity="0.32" cx="213" cy="-4" r="103.5" stroke="white"/>
<circle opacity="0.4" cx="213" cy="-4" r="61.5" stroke="white"/>
<circle opacity="0.16" cx="213" cy="-4" r="161.5" stroke="white"/>
<circle opacity="0.08" cx="213" cy="-4" r="236.5" stroke="white"/>
</g>
<g opacity="0.06">
<path d="M76.4089 124.741L81.9557 116.146L83.9817 123.325L90.6157 121.497L91.7892 128.155L99.2756 126.86L93.7411 135.455L76.4089 124.741Z" fill="white"/>
<path d="M93.7414 136.302C93.5808 136.302 93.4202 136.254 93.2843 136.169L75.9645 125.456C75.5568 125.202 75.4456 124.681 75.6927 124.282L81.2272 115.687C81.4125 115.409 81.746 115.251 82.0795 115.3C82.4131 115.348 82.6972 115.59 82.7837 115.917L84.575 122.284L90.3812 120.687C90.6159 120.626 90.8754 120.662 91.073 120.783C91.283 120.917 91.4189 121.122 91.4683 121.352L92.4937 127.175L99.1276 126.025C99.4612 125.965 99.8071 126.11 99.9924 126.388C100.178 126.667 100.19 127.03 100.005 127.308L94.4703 135.903C94.3097 136.157 94.0255 136.302 93.7414 136.302ZM77.6075 124.476L93.4696 134.281L97.4969 128.022L91.9378 128.991C91.7154 129.027 91.4807 128.979 91.2954 128.846C91.1101 128.712 90.9742 128.519 90.9371 128.301L89.9241 122.563L84.2044 124.137C83.982 124.197 83.7473 124.173 83.5496 124.064C83.352 123.955 83.2037 123.773 83.142 123.556L81.6348 118.217L77.6075 124.476Z" fill="white"/>
<path d="M23.3872 24.4482C23.2266 24.1214 23.1402 23.4072 23.1402 23.4072L21.843 6.19336L34.2832 18.4077L34.2585 18.4198C34.5302 18.6619 34.7773 18.9403 34.9379 19.2671C35.8768 21.2645 34.0484 24.0488 30.8612 25.4772C27.6616 26.9056 24.3138 26.4456 23.3872 24.4482Z" fill="white"/>
<path d="M27.1799 27.1605C25.0675 27.1605 23.3256 26.3373 22.6091 24.7999C22.4114 24.3762 22.3126 23.7104 22.2879 23.5046L20.9784 6.25451C20.9537 5.90346 21.1513 5.56451 21.4849 5.41924C21.8184 5.27398 22.2014 5.3345 22.4608 5.58872L34.901 17.803C34.9504 17.8514 34.9874 17.8999 35.0245 17.9604C35.3333 18.263 35.5557 18.5778 35.7163 18.9167C36.2969 20.1515 36.0993 21.6162 35.1604 23.0446C34.308 24.352 32.8997 25.4899 31.2072 26.2404C29.8236 26.8699 28.44 27.1605 27.1799 27.1605ZM24.178 24.0857C24.8945 25.6231 27.7853 25.9136 30.4907 24.7031C31.8867 24.0736 33.0232 23.1657 33.7027 22.1246C34.308 21.2046 34.4686 20.3088 34.135 19.6188C34.0486 19.4372 33.9003 19.2436 33.6656 19.0378C33.6038 18.9772 33.5421 18.9046 33.4927 18.832L22.8685 8.39716L23.9927 23.3231C24.0297 23.5652 24.1162 23.9646 24.178 24.0857Z" fill="white"/>
<path d="M27.4641 18.2386C30.6513 16.8102 33.9868 17.2702 34.9257 19.2676C35.8646 21.265 34.0362 24.0492 30.849 25.4776C27.6618 26.9061 24.3263 26.4461 23.3874 24.4487C22.4485 22.4392 24.2769 19.6671 27.4641 18.2386Z" fill="white"/>
<path d="M27.1798 27.1488C26.8215 27.1488 26.4756 27.1246 26.1421 27.0762C24.4373 26.8341 23.1649 26.023 22.5966 24.7883C22.016 23.5535 22.2136 22.0888 23.1525 20.6604C24.0049 19.353 25.4132 18.2151 27.1057 17.4645C30.7871 15.8182 34.5673 16.4598 35.7162 18.9172C36.8651 21.3746 34.8885 24.5946 31.2071 26.2409C29.8729 26.8462 28.4769 27.1488 27.1798 27.1488ZM27.8222 19.014C26.4262 19.6435 25.2897 20.5514 24.6102 21.5925C24.0049 22.5125 23.8443 23.4083 24.1779 24.0983C24.4991 24.7883 25.2897 25.2604 26.4015 25.4178C27.6492 25.5872 29.107 25.3451 30.4906 24.7156C33.196 23.5051 34.8638 21.1809 34.1473 19.6314C33.4184 18.0819 30.5276 17.8035 27.8222 19.014Z" fill="white"/>
<path d="M128.875 134.73C128.875 134.73 127.776 131.885 126.108 127.818C124.366 123.581 126.478 120.651 129.159 120.106C132.173 119.489 134.027 121.995 134.422 124.61C136.88 123.484 140.03 123.629 141.167 126.437C142.18 128.943 140.846 132.272 136.287 133.192C131.902 134.064 128.875 134.73 128.875 134.73Z" fill="white"/>
<path d="M128.875 135.577C128.517 135.577 128.196 135.359 128.072 135.032C128.072 135.032 126.973 132.187 125.305 128.132C124.378 125.868 124.378 123.689 125.317 121.982C126.083 120.578 127.417 119.597 128.986 119.271C130.333 118.992 131.618 119.234 132.692 119.961C133.804 120.711 134.632 121.958 135.064 123.459C136.571 122.987 138.091 122.987 139.351 123.471C140.562 123.943 141.476 124.863 141.982 126.122C142.575 127.587 142.477 129.221 141.698 130.613C140.759 132.32 138.894 133.519 136.46 134.015C132.099 134.887 129.073 135.552 129.073 135.564C128.999 135.577 128.937 135.577 128.875 135.577ZM130.061 120.856C129.826 120.856 129.579 120.881 129.332 120.929C128.27 121.147 127.356 121.825 126.837 122.781C126.145 124.04 126.17 125.723 126.911 127.502C128.097 130.383 128.999 132.659 129.419 133.749C130.568 133.494 133.001 132.974 136.114 132.356C138.042 131.969 139.475 131.073 140.179 129.814C140.71 128.858 140.772 127.744 140.376 126.752C140.043 125.929 139.487 125.36 138.709 125.057C137.634 124.633 136.176 124.754 134.793 125.384C134.545 125.493 134.261 125.493 134.014 125.36C133.78 125.239 133.607 125.009 133.57 124.742C133.347 123.277 132.643 122.006 131.692 121.365C131.21 121.026 130.666 120.856 130.061 120.856Z" fill="white"/>
<path d="M93.0865 87.9778C89.1951 87.9778 85.9832 84.9273 85.8843 81.0899C85.7855 77.192 88.948 73.9598 92.9136 73.863C94.8531 73.8025 96.6691 74.5046 98.0527 75.8119C99.4487 77.1072 100.239 78.8625 100.289 80.7509C100.388 84.6489 97.2374 87.881 93.2595 87.9778C93.2101 87.9778 93.1483 87.9778 93.0865 87.9778ZM93.0865 75.5577C93.0371 75.5577 93 75.5577 92.9506 75.5577C91.4929 75.5941 90.1216 76.1872 89.121 77.2162C88.108 78.2572 87.5768 79.613 87.6138 81.0536C87.688 84.0073 90.1711 86.3678 93.2224 86.2831C96.2367 86.2104 98.6333 83.741 98.5592 80.7873C98.4974 77.8699 96.0514 75.5577 93.0865 75.5577Z" fill="white"/>
<path d="M59.6079 108.605C59.4597 108.605 59.3114 108.569 59.1755 108.496C57.1001 107.334 55.6053 105.458 54.9629 103.194C54.3329 100.93 54.6294 98.5697 55.803 96.536C56.9889 94.5023 58.9038 93.0376 61.2139 92.4081C63.524 91.7786 65.933 92.0813 68.0084 93.2313C68.4284 93.4613 68.5643 93.9818 68.3296 94.3813C68.0949 94.7929 67.5637 94.926 67.156 94.696C65.4759 93.7639 63.524 93.5218 61.671 94.0302C59.8179 94.5386 58.2614 95.7129 57.3101 97.3592C55.3459 100.749 56.5566 105.082 60.0279 107.007C60.448 107.237 60.5839 107.758 60.3491 108.157C60.2009 108.448 59.9044 108.605 59.6079 108.605Z" fill="white"/>
<path d="M49.5152 151.507C49.3793 151.507 49.2434 151.471 49.1075 151.411C48.6875 151.193 48.5269 150.672 48.7493 150.261L56.2479 136.533C56.4703 136.122 57.0015 135.964 57.4215 136.182C57.8416 136.4 58.0022 136.92 57.7798 137.332L50.2811 151.06C50.1205 151.338 49.824 151.507 49.5152 151.507Z" fill="white"/>
<path d="M40.3732 74.2876C40.3485 74.2876 40.3238 74.2876 40.2991 74.2876C39.8296 74.2392 39.4714 73.8276 39.5208 73.3676L40.6573 61.2502L28.2789 60.1365C27.8095 60.088 27.4512 59.6765 27.5007 59.2165C27.5501 58.7444 27.9577 58.4054 28.4395 58.4538L41.6703 59.6401C42.1397 59.6886 42.498 60.1002 42.4486 60.5602L41.2379 73.525C41.2009 73.9608 40.8179 74.2876 40.3732 74.2876Z" fill="white"/>
<path d="M124.959 100.615C124.761 100.615 124.564 100.555 124.403 100.421L117.448 94.744C117.077 94.4413 117.028 93.9087 117.337 93.5455C117.646 93.1824 118.189 93.134 118.56 93.4366L124.848 98.5814L130.098 92.4197C130.407 92.0566 130.951 92.0082 131.321 92.3108L137.609 97.4556L142.859 91.294C143.168 90.9308 143.712 90.8824 144.082 91.185C144.453 91.4876 144.502 92.0203 144.194 92.3834L138.4 99.1987C138.091 99.5619 137.547 99.6103 137.177 99.3077L130.889 94.1629L125.638 100.325C125.453 100.518 125.206 100.615 124.959 100.615Z" fill="white"/>
<path d="M11.9849 127.272C11.5772 127.272 11.2189 126.993 11.1324 126.594C11.0336 126.134 11.3425 125.686 11.8119 125.601L19.8047 124.039L18.2111 116.207C18.1123 115.747 18.4211 115.299 18.8905 115.215L26.8834 113.653L25.2897 105.821C25.1909 105.361 25.4998 104.913 25.9692 104.828L33.962 103.267L32.3684 95.4345C32.2696 94.9745 32.5784 94.5266 33.0478 94.4419C33.5173 94.3451 33.9744 94.6477 34.0609 95.1077L35.8274 103.775C35.9263 104.235 35.6174 104.683 35.148 104.768L27.1552 106.329L28.7488 114.162C28.8476 114.622 28.5388 115.069 28.0693 115.154L20.0765 116.716L21.6701 124.548C21.769 125.008 21.4601 125.456 20.9907 125.541L12.1454 127.272C12.096 127.272 12.0466 127.272 11.9849 127.272Z" fill="white"/>
<path d="M181.996 124.464C181.922 124.464 181.848 124.452 181.774 124.44L169.778 121.316C169.321 121.195 169.037 120.735 169.161 120.275L172.348 108.521C172.41 108.303 172.558 108.122 172.755 108.001C172.953 107.892 173.188 107.855 173.41 107.916L185.406 111.039C185.863 111.16 186.147 111.62 186.023 112.08L182.836 123.834C182.725 124.222 182.379 124.464 181.996 124.464ZM171.063 119.888L181.391 122.575L184.133 112.455L173.806 109.768L171.063 119.888Z" fill="white"/>
<path d="M177.202 22.5592L195.906 20.1987C197.215 20.0292 198.488 21.5182 198.747 23.5277C199.006 25.525 198.166 27.2924 196.857 27.4498L178.153 29.8103C176.844 29.9798 175.572 28.4909 175.312 26.4814C175.053 24.484 175.893 22.7287 177.202 22.5592Z" fill="white"/>
<path d="M177.956 30.6824C176.264 30.6824 174.769 28.9634 174.448 26.6029C174.299 25.4771 174.448 24.3634 174.88 23.4797C175.362 22.487 176.165 21.8454 177.091 21.7244L195.795 19.3639C197.611 19.146 199.278 20.9133 199.612 23.4191C199.76 24.5449 199.612 25.6586 199.18 26.5423C198.698 27.535 197.895 28.1765 196.968 28.2976L178.265 30.6581C178.166 30.6702 178.055 30.6824 177.956 30.6824ZM196.104 21.0344C196.079 21.0344 196.042 21.0344 196.017 21.0344L177.314 23.3949C176.992 23.4312 176.671 23.7218 176.449 24.1939C176.165 24.787 176.066 25.5739 176.165 26.3729C176.375 27.9708 177.326 29.0481 178.043 28.9755L196.746 26.615C197.067 26.5786 197.388 26.2881 197.611 25.816C197.895 25.2228 197.994 24.436 197.895 23.637C197.697 22.0997 196.808 21.0344 196.104 21.0344Z" fill="white"/>
<path d="M198.76 23.5279C199.019 25.5374 198.179 27.2926 196.87 27.45C195.56 27.6195 194.288 26.1305 194.028 24.121C193.769 22.1116 194.609 20.3563 195.919 20.1989C197.228 20.0415 198.5 21.5305 198.76 23.5279Z" fill="white"/>
<path d="M196.672 28.3218C195.844 28.3218 195.029 27.9102 194.387 27.1597C193.744 26.4092 193.312 25.3681 193.164 24.2423C193.015 23.1165 193.164 22.0028 193.596 21.1191C194.078 20.1265 194.881 19.4849 195.807 19.3639C197.623 19.146 199.291 20.9133 199.625 23.4191C199.773 24.5449 199.625 25.6586 199.192 26.5423C198.71 27.535 197.908 28.1765 196.981 28.2976C196.882 28.3097 196.771 28.3218 196.672 28.3218ZM196.104 21.0344C196.079 21.0344 196.042 21.0344 196.017 21.0344C195.696 21.0707 195.375 21.3612 195.153 21.8333C194.869 22.4265 194.77 23.2134 194.869 24.0123C194.98 24.8113 195.276 25.5497 195.709 26.0581C196.042 26.4576 196.437 26.6634 196.746 26.615C197.067 26.5786 197.389 26.2881 197.611 25.816C197.895 25.2228 197.994 24.436 197.895 23.637C197.697 22.0997 196.808 21.0344 196.104 21.0344Z" fill="white"/>
<path d="M95.8539 38.1037L104.909 37.4863L109.974 44.8585L106.009 52.848L96.9533 53.4654L91.876 46.0932L95.8539 38.1037Z" fill="white"/>
<path d="M96.9531 54.3131C96.6689 54.3131 96.3972 54.1679 96.2366 53.9379L91.1592 46.5657C90.9863 46.3115 90.9616 45.9968 91.0974 45.7183L95.0753 37.7288C95.2112 37.4504 95.483 37.2809 95.7918 37.2567L104.847 36.6393C105.168 36.6151 105.452 36.7604 105.625 37.0146L110.703 44.3868C110.876 44.641 110.9 44.9557 110.764 45.2341L106.787 53.2237C106.651 53.5021 106.379 53.6716 106.07 53.6958L97.0149 54.3131C96.9901 54.3131 96.9778 54.3131 96.9531 54.3131ZM92.8764 46.021L97.3978 52.5821L105.452 52.0252L108.998 44.9073L104.476 38.3462L96.4219 38.903L92.8764 46.021Z" fill="white"/>
<path d="M100.931 46.3225C100.647 46.3225 100.375 46.1772 100.215 45.9472L95.1372 38.5751C94.8654 38.1877 94.9766 37.6551 95.3719 37.4008C95.7672 37.1466 96.3108 37.2435 96.5702 37.6308L101.363 44.5914L109.912 44.0104C110.394 43.974 110.802 44.3251 110.839 44.7972C110.876 45.2693 110.518 45.6688 110.036 45.7051L100.98 46.3225C100.968 46.3225 100.943 46.3225 100.931 46.3225Z" fill="white"/>
<path d="M96.9528 54.3138C96.8293 54.3138 96.6934 54.2896 96.5699 54.2291C96.1375 54.0233 95.9645 53.5149 96.1746 53.0912L100.152 45.1016C100.362 44.678 100.881 44.5085 101.314 44.7143C101.746 44.9201 101.919 45.4285 101.709 45.8522L97.7311 53.8417C97.5829 54.1443 97.274 54.3138 96.9528 54.3138Z" fill="white"/>
<path d="M3.42329 83.9469L3.39859 83.9227C3.34917 84.0558 3.2874 84.1769 3.21328 84.298C3.11445 84.4553 3.01562 84.6127 2.87973 84.7459C2.76855 84.8548 2.58324 84.9758 2.42265 85.0727C2.34852 85.1211 2.2744 85.1695 2.18793 85.2059C2.11381 85.2422 2.05204 85.2785 2.05204 85.2785L1.68143 85.3753C1.61966 85.3874 1.57024 85.4116 1.49612 85.4237L-8.70801 88.1111L-5.86666 78.1363C-5.85431 78.0758 -5.8296 78.0153 -5.81725 77.9547L-5.71842 77.5916L-5.69371 77.6158C-5.6443 77.4826 -5.58253 77.3616 -5.50841 77.2405C-5.40958 77.0832 -5.31075 76.9258 -5.17486 76.7926C-5.06368 76.6837 -4.87837 76.5626 -4.71777 76.4658C-4.64365 76.4174 -4.56953 76.3689 -4.48305 76.3326C-4.39658 76.2963 -4.33481 76.2721 -4.33481 76.2721L-3.9642 76.1753C-3.90243 76.1632 -3.85302 76.1389 -3.79125 76.1268L6.41288 73.4395L3.57154 83.4143C3.55918 83.4748 3.53448 83.5353 3.52212 83.5958L3.42329 83.9469Z" fill="white"/>
<path d="M-8.70784 88.9577C-8.93021 88.9577 -9.15257 88.8729 -9.32552 88.7035C-9.54789 88.4856 -9.62201 88.1708 -9.54789 87.8803L-6.70655 77.9055C-6.70655 77.8934 -6.66948 77.7844 -6.66948 77.7723L-6.5583 77.3608C-6.52124 77.2518 -6.47183 77.155 -6.41006 77.0702C-6.36064 76.9734 -6.31123 76.8886 -6.26181 76.8039C-6.13828 76.586 -5.99003 76.3923 -5.82943 76.2228C-5.81708 76.2107 -5.80473 76.1986 -5.80473 76.1865C-5.65648 76.0413 -5.45883 75.9081 -5.18705 75.7386C-5.05116 75.6539 -4.96468 75.6055 -4.8782 75.5692L-4.79173 75.5207C-4.72996 75.4844 -4.66819 75.4602 -4.60642 75.4481L-4.23581 75.3513C-4.12463 75.3149 -4.06286 75.3028 -3.98874 75.2907L6.14126 72.6155C6.43775 72.5428 6.75895 72.6276 6.98131 72.8333C7.20368 73.0512 7.2778 73.366 7.20368 73.6565L4.36234 83.6313C4.36234 83.6434 4.32528 83.7524 4.32528 83.7645L4.20174 84.1761C4.16468 84.285 4.11527 84.3818 4.0535 84.4666C4.00408 84.5634 3.95467 84.6482 3.90525 84.7329C3.78172 84.9508 3.63347 85.1445 3.47287 85.3019C3.46052 85.314 3.44817 85.3261 3.43581 85.3382C3.28757 85.4713 3.10227 85.6166 2.81813 85.7861C2.68224 85.8708 2.59577 85.9192 2.50929 85.9677L2.45987 86.0282C2.3981 86.0645 2.33634 86.0887 2.27457 86.1008L1.90396 86.1977C1.79277 86.234 1.73101 86.2461 1.65689 86.2582L-8.47312 88.9335C-8.54724 88.9456 -8.62136 88.9577 -8.70784 88.9577ZM-5.14998 78.2808L-5.01409 78.3171L-7.46012 86.9119L1.27392 84.6119L1.68159 85.3866L1.45923 84.5634L1.90396 84.394C2.13868 84.2487 2.23751 84.1882 2.26221 84.164L2.27457 84.1519C2.33634 84.0913 2.39811 84.0066 2.47223 83.8855C2.534 83.7887 2.57106 83.704 2.60812 83.6192C2.62047 83.5829 2.63282 83.5587 2.65753 83.5224L2.70695 83.365L2.76871 83.3771C2.80578 83.3408 2.83048 83.3045 2.86754 83.2803L2.73165 83.244L5.17768 74.6491L-4.1864 77.155C-4.43347 77.3002 -4.51995 77.3729 -4.54465 77.3971L-4.55701 77.4092C-4.61878 77.4697 -4.68054 77.5544 -4.75467 77.6755C-4.81643 77.7723 -4.8535 77.8571 -4.89056 77.9418C-4.90291 77.9781 -4.91526 78.0023 -4.93997 78.0386L-4.98939 78.196L-5.05115 78.1839C-5.07586 78.2202 -5.11292 78.2565 -5.14998 78.2808Z" fill="white"/>
<path d="M2.88005 85.6051C2.65769 85.6051 2.43532 85.5203 2.26237 85.3509C1.92882 85.024 1.92882 84.4793 2.26237 84.1524C2.90476 83.523 2.80593 82.5303 2.68239 81.9856C2.44767 80.9203 1.79293 79.8066 0.829344 78.8503C-0.134242 77.9061 -1.25842 77.2403 -2.34555 77.0103C-2.90146 76.8892 -3.91446 76.7803 -4.55685 77.4098C-4.90276 77.7366 -5.44632 77.7366 -5.77987 77.4098C-6.11342 77.0829 -6.11342 76.5382 -5.77987 76.2113C-4.8657 75.3276 -3.51915 75.025 -1.96258 75.364C-0.554266 75.6787 0.878758 76.4898 2.06471 77.664C3.25066 78.8382 4.07836 80.2545 4.37485 81.6345C4.70839 83.1598 4.3872 84.4793 3.47303 85.363C3.31243 85.5203 3.10242 85.6051 2.88005 85.6051Z" fill="white"/>
<path d="M184.948 56.4922L173.558 68.7549L180.378 69.457L177.227 78.0639L188.58 65.9949L181.909 65.317L184.948 56.4922Z" fill="white"/>
<path d="M177.227 78.9107C177.079 78.9107 176.918 78.8743 176.782 78.7896C176.424 78.5838 176.276 78.1601 176.412 77.7849L179.191 70.1948L173.472 69.6016C173.15 69.5653 172.866 69.3595 172.755 69.0569C172.644 68.7543 172.706 68.4274 172.928 68.1853L184.318 55.9226C184.59 55.62 185.047 55.5594 185.393 55.7652C185.751 55.971 185.912 56.3826 185.776 56.77L183.083 64.59L188.679 65.1711C189 65.2074 189.284 65.4132 189.396 65.7158C189.507 66.0185 189.445 66.3574 189.223 66.5874L177.87 78.6443C177.697 78.8138 177.462 78.9107 177.227 78.9107ZM175.349 68.0885L180.464 68.6211C180.723 68.6453 180.97 68.7906 181.106 69.0085C181.242 69.2264 181.279 69.5048 181.193 69.7469L179.488 74.4196L186.789 66.66L181.835 66.1516C181.576 66.1274 181.341 65.9821 181.193 65.7642C181.044 65.5464 181.02 65.28 181.106 65.0379L182.823 60.0505L175.349 68.0885Z" fill="white"/>
<path d="M7.62392 35.7679C7.5745 35.7679 7.52509 35.7679 7.47568 35.7558C3.95488 35.1626 0.878817 33.2621 -1.18424 30.4052C-3.24731 27.5484 -4.05029 24.0741 -3.44497 20.612C-3.35849 20.152 -2.91376 19.8373 -2.44432 19.922C-1.97488 20.0067 -1.65368 20.4425 -1.74016 20.9025C-2.27137 23.9047 -1.56721 26.931 0.236428 29.4247C2.04006 31.9184 4.70846 33.5647 7.78452 34.0853C8.25396 34.17 8.57515 34.6058 8.48868 35.0658C8.4022 35.4774 8.03159 35.7679 7.62392 35.7679Z" fill="white"/>
<path d="M97.9415 17.9598C97.7191 17.9598 97.5091 17.8751 97.3362 17.7177C96.9903 17.3909 96.9903 16.8583 97.3238 16.5193L110.468 3.25184C110.802 2.91289 111.345 2.91289 111.691 3.23973C112.037 3.56658 112.037 4.09921 111.703 4.43816L98.5592 17.7056C98.3986 17.863 98.1639 17.9598 97.9415 17.9598Z" fill="white"/>
<path d="M147.603 36.9771C147.356 36.9771 147.121 36.8802 146.948 36.6744L144.168 33.4665C143.86 33.1155 143.909 32.5707 144.267 32.2681C144.638 31.9655 145.181 32.0139 145.49 32.3649L148.27 35.5728C148.579 35.9239 148.529 36.4686 148.171 36.7713C147.998 36.9044 147.8 36.9771 147.603 36.9771Z" fill="white"/>
<path d="M138.399 26.3618C138.152 26.3618 137.918 26.265 137.745 26.0592L134.965 22.8513C134.656 22.5002 134.706 21.9555 135.064 21.6529C135.422 21.3502 135.978 21.3986 136.287 21.7497L139.066 24.9576C139.375 25.3087 139.326 25.8534 138.968 26.156C138.795 26.3013 138.597 26.3618 138.399 26.3618Z" fill="white"/>
<path d="M138.498 38.6012C138.399 38.6012 138.301 38.5891 138.202 38.5528C137.757 38.3955 137.522 37.9112 137.683 37.4755L139.128 33.517C139.289 33.0812 139.783 32.8512 140.228 33.0086C140.673 33.1659 140.907 33.6502 140.747 34.086L139.301 38.0444C139.19 38.3955 138.857 38.6012 138.498 38.6012Z" fill="white"/>
<path d="M143.279 25.4899C143.18 25.4899 143.082 25.4778 142.983 25.4415C142.538 25.2841 142.303 24.7999 142.464 24.3641L143.909 20.4057C144.07 19.9699 144.564 19.7399 145.009 19.8972C145.454 20.0546 145.688 20.5388 145.528 20.9746L144.082 24.9331C143.959 25.272 143.625 25.4899 143.279 25.4899Z" fill="white"/>
<path d="M132.507 31.7009C132.099 31.7009 131.729 31.4104 131.655 31.0109C131.568 30.5509 131.877 30.103 132.346 30.0304L136.571 29.2798C137.041 29.1951 137.498 29.4977 137.572 29.9577C137.659 30.4177 137.35 30.8656 136.88 30.9383L132.655 31.6888C132.606 31.6888 132.556 31.7009 132.507 31.7009Z" fill="white"/>
<path d="M146.491 29.1951C146.084 29.1951 145.713 28.9045 145.639 28.505C145.553 28.045 145.861 27.5971 146.331 27.5245L150.556 26.774C151.025 26.6892 151.482 26.9919 151.556 27.4519C151.643 27.9119 151.334 28.3598 150.865 28.4324L146.64 29.1829C146.59 29.1951 146.541 29.1951 146.491 29.1951Z" fill="white"/>
<path d="M154.583 82.676C154.41 82.676 154.249 82.6518 154.077 82.6034C153.187 82.325 152.693 81.3929 152.977 80.5213C153.261 79.6497 154.2 79.1655 155.09 79.4439C155.979 79.7223 156.473 80.6544 156.189 81.526C155.967 82.2281 155.3 82.676 154.583 82.676ZM154.595 80.9813C154.583 80.9813 154.558 80.9934 154.558 81.0055L154.348 81.7924L154.595 80.9813Z" fill="white"/>
<path d="M-0.0229688 107.092C-0.19592 107.092 -0.368872 107.068 -0.541823 107.008C-1.45599 106.729 -1.96249 105.761 -1.67836 104.865C-1.54247 104.429 -1.23363 104.078 -0.825957 103.872C-0.418286 103.667 0.0511533 103.618 0.495885 103.763C0.940617 103.897 1.29887 104.199 1.50889 104.599C1.7189 104.998 1.75596 105.458 1.62007 105.894C1.3977 106.632 0.705898 107.092 -0.0229688 107.092Z" fill="white"/>
<path d="M63.4627 67.5563C63.2897 67.5563 63.1168 67.5321 62.9562 67.4837C62.5238 67.3505 62.1779 67.06 61.9679 66.6726C61.7579 66.2852 61.7208 65.8373 61.8567 65.4137C61.9926 64.99 62.2891 64.651 62.6844 64.4452C63.0797 64.2394 63.5368 64.2031 63.9692 64.3363C64.4015 64.4694 64.7474 64.76 64.9575 65.1473C65.1675 65.5347 65.2045 65.9826 65.0686 66.4063C64.9328 66.83 64.6363 67.1689 64.2409 67.3747C63.9939 67.4958 63.7221 67.5563 63.4627 67.5563ZM63.4627 65.8616C63.438 65.8616 63.4256 65.8737 63.4132 65.8979L63.475 65.8737C63.4627 65.8616 63.4627 65.8616 63.4627 65.8616Z" fill="white"/>
<path d="M133.273 64.8804C133.05 64.8804 132.828 64.7956 132.655 64.6262C132.321 64.2993 132.321 63.7546 132.655 63.4277L142.921 53.3682C143.254 53.0413 143.81 53.0413 144.144 53.3682C144.477 53.695 144.477 54.2398 144.144 54.5666L133.878 64.6262C133.717 64.7956 133.495 64.8804 133.273 64.8804Z" fill="white"/>
<path d="M143.539 64.8804C143.316 64.8804 143.094 64.7956 142.921 64.6262L132.655 54.5666C132.321 54.2398 132.321 53.695 132.655 53.3682C132.988 53.0413 133.544 53.0413 133.878 53.3682L144.144 63.4277C144.477 63.7546 144.477 64.2993 144.144 64.6262C143.983 64.7956 143.761 64.8804 143.539 64.8804Z" fill="white"/>
<path d="M58.0022 42.4747C57.7675 42.4747 57.5574 42.39 57.3845 42.2205L49.1322 34.1341C48.7987 33.8073 48.7987 33.2626 49.1322 32.9357L57.3845 24.8493C57.7057 24.5346 58.2863 24.5346 58.6075 24.8493L66.8597 32.9357C67.1933 33.2626 67.1933 33.8073 66.8597 34.1341L58.6075 42.2205C58.4469 42.3779 58.2245 42.4747 58.0022 42.4747ZM50.9606 33.5289L57.9898 40.4168L65.0191 33.5289L58.0022 26.6409L50.9606 33.5289Z" fill="white"/>
</g>
</svg>
