<svg width="327" height="137" viewBox="0 0 327 137" fill="none" xmlns="http://www.w3.org/2000/svg">
<g opacity="0.06">
<path d="M125.557 124.743L134.671 116.148L138 123.327L148.901 121.499L150.83 128.157L163.131 126.862L154.037 135.456L125.557 124.743Z" fill="white"/>
<path d="M154.037 136.302C153.773 136.302 153.51 136.254 153.286 136.169L124.826 125.456C124.156 125.202 123.973 124.681 124.379 124.282L133.474 115.687C133.778 115.409 134.326 115.251 134.874 115.3C135.422 115.348 135.889 115.59 136.031 115.917L138.975 122.284L148.516 120.687C148.901 120.626 149.328 120.662 149.653 120.783C149.998 120.917 150.221 121.122 150.302 121.352L151.987 127.175L162.888 126.025C163.436 125.965 164.004 126.11 164.309 126.388C164.613 126.667 164.634 127.03 164.329 127.308L155.235 135.903C154.971 136.157 154.504 136.302 154.037 136.302ZM127.526 124.476L153.591 134.281L160.208 128.022L151.074 128.991C150.708 129.027 150.322 128.979 150.018 128.846C149.713 128.712 149.49 128.519 149.429 128.301L147.765 122.563L138.366 124.137C138.001 124.197 137.615 124.173 137.29 124.064C136.965 123.955 136.722 123.773 136.62 123.556L134.144 118.217L127.526 124.476Z" fill="white"/>
<path d="M38.43 24.4482C38.1661 24.1214 38.0241 23.4072 38.0241 23.4072L35.8926 6.19336L56.3344 18.4077L56.2938 18.4198C56.7404 18.6619 57.1464 18.9403 57.4103 19.2671C58.9531 21.2645 55.9487 24.0488 50.7114 25.4772C45.4538 26.9056 39.9525 26.4456 38.43 24.4482Z" fill="white"/>
<path d="M44.6626 27.1605C41.1914 27.1605 38.3291 26.3373 37.1517 24.7999C36.8269 24.3762 36.6645 23.7104 36.6239 23.5046L34.4722 6.25451C34.4316 5.90346 34.7564 5.56451 35.3044 5.41924C35.8525 5.27398 36.4818 5.3345 36.9081 5.58872L57.35 17.803C57.4312 17.8514 57.4921 17.8999 57.553 17.9604C58.0605 18.263 58.4258 18.5778 58.6897 18.9167C59.6438 20.1515 59.319 21.6162 57.7763 23.0446C56.3756 24.352 54.0614 25.4899 51.2803 26.2404C49.0068 26.8699 46.7332 27.1605 44.6626 27.1605ZM39.7298 24.0857C40.9072 25.6231 45.6573 25.9136 50.103 24.7031C52.3968 24.0736 54.2644 23.1657 55.3809 22.1246C56.3756 21.2046 56.6395 20.3088 56.0914 19.6188C55.9493 19.4372 55.7057 19.2436 55.32 19.0378C55.2185 18.9772 55.117 18.9046 55.0358 18.832L37.578 8.39716L39.4253 23.3231C39.4862 23.5652 39.6283 23.9646 39.7298 24.0857Z" fill="white"/>
<path d="M45.1295 18.2386C50.3668 16.8102 55.8477 17.2702 57.3905 19.2676C58.9333 21.265 55.9289 24.0492 50.6916 25.4776C45.4543 26.9061 39.9733 26.4461 38.4306 24.4487C36.8878 22.4392 39.8921 19.6671 45.1295 18.2386Z" fill="white"/>
<path d="M44.6625 27.1488C44.0738 27.1488 43.5054 27.1246 42.9573 27.0762C40.1559 26.8341 38.0651 26.023 37.1313 24.7883C36.1772 23.5535 36.502 22.0888 38.0448 20.6604C39.4454 19.353 41.7596 18.2151 44.5407 17.4645C50.59 15.8182 56.8017 16.4598 58.6896 18.9172C60.5775 21.3746 57.3295 24.5946 51.2802 26.2409C49.0878 26.8462 46.794 27.1488 44.6625 27.1488ZM45.7181 19.014C43.4242 19.6435 41.5566 20.5514 40.4401 21.5925C39.4454 22.5125 39.1816 23.4083 39.7296 24.0983C40.2574 24.7883 41.5566 25.2604 43.3836 25.4178C45.4339 25.5872 47.8292 25.3451 50.1028 24.7156C54.5485 23.5051 57.2889 21.1809 56.1115 19.6314C54.9139 18.0819 50.1637 17.8035 45.7181 19.014Z" fill="white"/>
<path d="M211.77 134.73C211.77 134.73 209.963 131.885 207.222 127.818C204.36 123.581 207.831 120.651 212.236 120.106C217.19 119.489 220.235 121.995 220.884 124.61C224.924 123.484 230.1 123.629 231.968 126.437C233.632 128.943 231.44 132.272 223.949 133.192C216.743 134.064 211.77 134.73 211.77 134.73Z" fill="white"/>
<path d="M211.77 135.577C211.181 135.577 210.653 135.359 210.45 135.032C210.45 135.032 208.643 132.187 205.903 128.132C204.381 125.868 204.381 123.689 205.923 121.982C207.182 120.578 209.374 119.597 211.952 119.271C214.165 118.992 216.276 119.234 218.042 119.961C219.869 120.711 221.229 121.958 221.94 123.459C224.416 122.987 226.913 122.987 228.984 123.471C230.973 123.943 232.475 124.863 233.308 126.122C234.282 127.587 234.12 129.221 232.841 130.613C231.298 132.32 228.233 133.519 224.234 134.015C217.068 134.887 212.094 135.552 212.094 135.564C211.973 135.577 211.871 135.577 211.77 135.577ZM213.718 120.856C213.333 120.856 212.927 120.881 212.521 120.929C210.775 121.147 209.273 121.825 208.42 122.781C207.283 124.04 207.324 125.723 208.542 127.502C210.491 130.383 211.973 132.659 212.663 133.749C214.551 133.494 218.55 132.974 223.665 132.356C226.832 131.969 229.187 131.073 230.344 129.814C231.217 128.858 231.318 127.744 230.669 126.752C230.121 125.929 229.207 125.36 227.928 125.057C226.162 124.633 223.767 124.754 221.493 125.384C221.087 125.493 220.62 125.493 220.214 125.36C219.829 125.239 219.544 125.009 219.484 124.742C219.118 123.277 217.961 122.006 216.398 121.365C215.606 121.026 214.713 120.856 213.718 120.856Z" fill="white"/>
<path d="M152.962 87.9778C146.567 87.9778 141.289 84.9273 141.127 81.0899C140.964 77.192 146.161 73.9598 152.677 73.863C155.864 73.8025 158.848 74.5046 161.122 75.8119C163.416 77.1072 164.715 78.8625 164.796 80.7509C164.959 84.6489 159.782 87.881 153.246 87.9778C153.165 87.9778 153.063 87.9778 152.962 87.9778ZM152.962 75.5577C152.88 75.5577 152.819 75.5577 152.738 75.5577C150.343 75.5941 148.09 76.1872 146.445 77.2162C144.781 78.2572 143.908 79.613 143.969 81.0536C144.091 84.0073 148.171 86.3678 153.185 86.2831C158.138 86.2104 162.076 83.741 161.954 80.7873C161.853 77.8699 157.833 75.5577 152.962 75.5577Z" fill="white"/>
<path d="M97.9486 108.605C97.705 108.605 97.4614 108.569 97.2381 108.496C93.8278 107.334 91.3715 105.458 90.3159 103.194C89.2806 100.93 89.7678 98.5697 91.6963 96.536C93.6451 94.5023 96.7915 93.0376 100.588 92.4081C104.384 91.7786 108.342 92.0813 111.752 93.2313C112.443 93.4613 112.666 93.9818 112.28 94.3813C111.895 94.7929 111.022 94.926 110.352 94.696C107.591 93.7639 104.384 93.5218 101.339 94.0302C98.2937 94.5386 95.7359 95.7129 94.1729 97.3592C90.9452 100.749 92.9346 105.082 98.6388 107.007C99.329 107.237 99.5523 107.758 99.1666 108.157C98.923 108.448 98.4358 108.605 97.9486 108.605Z" fill="white"/>
<path d="M81.3645 151.505C81.1412 151.505 80.9179 151.469 80.6946 151.409C80.0044 151.191 79.7405 150.67 80.1059 150.259L92.4278 136.531C92.7932 136.12 93.6661 135.962 94.3563 136.18C95.0465 136.398 95.3104 136.919 94.945 137.33L82.623 151.058C82.3591 151.336 81.872 151.505 81.3645 151.505Z" fill="white"/>
<path d="M66.3419 74.2876C66.3013 74.2876 66.2608 74.2876 66.2202 74.2876C65.4488 74.2392 64.8601 73.8276 64.9413 73.3676L66.8088 61.2502L46.4685 60.1365C45.6971 60.088 45.1084 59.6765 45.1896 59.2165C45.2708 58.7444 45.9407 58.4054 46.7324 58.4538L68.4734 59.6401C69.2448 59.6886 69.8335 60.1002 69.7523 60.5602L67.7629 73.525C67.702 73.9608 67.0727 74.2876 66.3419 74.2876Z" fill="white"/>
<path d="M205.335 100.615C205.01 100.615 204.685 100.555 204.421 100.421L192.992 94.744C192.383 94.4413 192.302 93.9087 192.81 93.5455C193.317 93.1824 194.21 93.134 194.819 93.4366L205.152 98.5814L213.779 92.4197C214.287 92.0566 215.18 92.0082 215.789 92.3108L226.122 97.4556L234.749 91.294C235.256 90.9308 236.15 90.8824 236.759 91.185C237.368 91.4876 237.449 92.0203 236.941 92.3834L227.421 99.1987C226.913 99.5619 226.02 99.6103 225.411 99.3077L215.079 94.1629L206.451 100.325C206.147 100.518 205.741 100.615 205.335 100.615Z" fill="white"/>
<path d="M19.6937 127.272C19.0238 127.272 18.4351 126.993 18.293 126.594C18.1306 126.134 18.6381 125.686 19.4095 125.601L32.5434 124.039L29.9247 116.207C29.7623 115.747 30.2698 115.299 31.0412 115.215L44.1752 113.653L41.5565 105.821C41.3941 105.361 41.9016 104.913 42.673 104.828L55.8069 103.267L53.1882 95.4345C53.0258 94.9745 53.5333 94.5266 54.3047 94.4419C55.0761 94.3451 55.8272 94.6477 55.9693 95.1077L58.8722 103.775C59.0346 104.235 58.5271 104.683 57.7557 104.768L44.6218 106.329L47.2404 114.162C47.4028 114.622 46.8953 115.069 46.1239 115.154L32.99 116.716L35.6087 124.548C35.7711 125.008 35.2636 125.456 34.4922 125.541L19.9576 127.272C19.8764 127.272 19.7952 127.272 19.6937 127.272Z" fill="white"/>
<path d="M299.059 124.464C298.937 124.464 298.815 124.452 298.694 124.44L278.982 121.316C278.231 121.195 277.764 120.735 277.967 120.275L283.205 108.521C283.306 108.303 283.55 108.122 283.875 108.001C284.2 107.892 284.585 107.855 284.951 107.916L304.662 111.039C305.413 111.16 305.88 111.62 305.677 112.08L300.439 123.834C300.257 124.222 299.688 124.464 299.059 124.464ZM281.094 119.888L298.064 122.575L302.571 112.455L285.6 109.768L281.094 119.888Z" fill="white"/>
<path d="M291.182 22.5592L321.915 20.1987C324.067 20.0292 326.158 21.5182 326.584 23.5277C327.011 25.525 325.63 27.2924 323.479 27.4498L292.745 29.8103C290.593 29.9798 288.502 28.4909 288.076 26.4814C287.649 24.484 289.03 22.7287 291.182 22.5592Z" fill="white"/>
<path d="M292.42 30.6824C289.639 30.6824 287.183 28.9634 286.655 26.6029C286.412 25.4771 286.655 24.3634 287.366 23.4797C288.157 22.487 289.477 21.8454 290.999 21.7244L321.733 19.3639C324.717 19.146 327.458 20.9133 328.006 23.4191C328.249 24.5449 328.006 25.6586 327.295 26.5423C326.504 27.535 325.184 28.1765 323.662 28.2976L292.928 30.6581C292.765 30.6702 292.583 30.6824 292.42 30.6824ZM322.241 21.0344C322.2 21.0344 322.139 21.0344 322.098 21.0344L291.365 23.3949C290.837 23.4312 290.309 23.7218 289.944 24.1939C289.477 24.787 289.314 25.5739 289.477 26.3729C289.822 27.9708 291.385 29.0481 292.562 28.9755L323.296 26.615C323.824 26.5786 324.352 26.2881 324.717 25.816C325.184 25.2228 325.346 24.436 325.184 23.637C324.859 22.0997 323.398 21.0344 322.241 21.0344Z" fill="white"/>
<path d="M326.605 23.5279C327.032 25.5374 325.651 27.2926 323.5 27.45C321.348 27.6195 319.257 26.1305 318.831 24.121C318.404 22.1116 319.785 20.3563 321.937 20.1989C324.088 20.0415 326.179 21.5305 326.605 23.5279Z" fill="white"/>
<path d="M323.175 28.3218C321.815 28.3218 320.475 27.9102 319.42 27.1597C318.364 26.4092 317.654 25.3681 317.41 24.2423C317.166 23.1165 317.41 22.0028 318.121 21.1191C318.912 20.1265 320.232 19.4849 321.754 19.3639C324.738 19.146 327.479 20.9133 328.027 23.4191C328.27 24.5449 328.027 25.6586 327.316 26.5423C326.525 27.535 325.205 28.1765 323.683 28.2976C323.52 28.3097 323.338 28.3218 323.175 28.3218ZM322.241 21.0344C322.201 21.0344 322.14 21.0344 322.099 21.0344C321.571 21.0707 321.044 21.3612 320.678 21.8333C320.211 22.4265 320.049 23.2134 320.211 24.0123C320.394 24.8113 320.881 25.5497 321.592 26.0581C322.14 26.4576 322.789 26.6634 323.297 26.615C323.825 26.5786 324.353 26.2881 324.718 25.816C325.185 25.2228 325.347 24.436 325.185 23.637C324.86 22.0997 323.398 21.0344 322.241 21.0344Z" fill="white"/>
<path d="M157.509 38.1037L172.388 37.4863L180.711 44.8585L174.195 52.848L159.315 53.4654L150.972 46.0932L157.509 38.1037Z" fill="white"/>
<path d="M159.315 54.3131C158.848 54.3131 158.402 54.1679 158.138 53.9379L149.795 46.5657C149.51 46.3115 149.47 45.9968 149.693 45.7183L156.23 37.7288C156.453 37.4504 156.899 37.2809 157.407 37.2567L172.287 36.6393C172.814 36.6151 173.281 36.7604 173.566 37.0146L181.909 44.3868C182.193 44.641 182.234 44.9557 182.01 45.2341L175.474 53.2237C175.25 53.5021 174.804 53.6716 174.296 53.6958L159.417 54.3131C159.376 54.3131 159.356 54.3131 159.315 54.3131ZM152.616 46.021L160.046 52.5821L173.281 52.0252L179.107 44.9073L171.678 38.3462L158.442 38.903L152.616 46.021Z" fill="white"/>
<path d="M165.852 46.3225C165.385 46.3225 164.938 46.1772 164.674 45.9472L156.331 38.5751C155.884 38.1877 156.067 37.6551 156.717 37.4008C157.366 37.1466 158.259 37.2435 158.686 37.6308L166.562 44.5914L180.609 44.0104C181.401 43.974 182.071 44.3251 182.132 44.7972C182.193 45.2693 181.604 45.6688 180.812 45.7051L165.933 46.3225C165.912 46.3225 165.872 46.3225 165.852 46.3225Z" fill="white"/>
<path d="M159.314 54.3138C159.111 54.3138 158.888 54.2896 158.685 54.2291C157.975 54.0233 157.69 53.5149 158.036 53.0912L164.572 45.1016C164.917 44.678 165.77 44.5085 166.48 44.7143C167.191 44.9201 167.475 45.4285 167.13 45.8522L160.593 53.8417C160.35 54.1443 159.842 54.3138 159.314 54.3138Z" fill="white"/>
<path d="M5.62527 83.9449L5.58467 83.9207C5.50347 84.0539 5.40197 84.1749 5.28017 84.296C5.11778 84.4534 4.95538 84.6107 4.73208 84.7439C4.54938 84.8528 4.24488 84.9739 3.98099 85.0707C3.85919 85.1192 3.73739 85.1676 3.5953 85.2039C3.4735 85.2402 3.372 85.2765 3.372 85.2765L2.76301 85.3734C2.66151 85.3855 2.58031 85.4097 2.45851 85.4218L-14.3091 88.1092L-9.64014 78.1344C-9.61984 78.0739 -9.57924 78.0133 -9.55894 77.9528L-9.39654 77.5896L-9.35594 77.6138C-9.27474 77.4807 -9.17325 77.3596 -9.05145 77.2386C-8.88905 77.0812 -8.72665 76.9238 -8.50335 76.7907C-8.32066 76.6817 -8.01616 76.5607 -7.75226 76.4638C-7.63046 76.4154 -7.50867 76.367 -7.36657 76.3307C-7.22447 76.2944 -7.12297 76.2702 -7.12297 76.2702L-6.51398 76.1733C-6.41248 76.1612 -6.33128 76.137 -6.22978 76.1249L10.5378 73.4375L5.86887 83.4123C5.84857 83.4728 5.80797 83.5334 5.78767 83.5939L5.62527 83.9449Z" fill="white"/>
<path d="M-14.3088 88.9577C-14.6742 88.9577 -15.0396 88.8729 -15.3238 88.7035C-15.6892 88.4856 -15.811 88.1708 -15.6892 87.8803L-11.0202 77.9055C-11.0202 77.8934 -10.9593 77.7844 -10.9593 77.7723L-10.7767 77.3608C-10.7158 77.2518 -10.6346 77.155 -10.5331 77.0702C-10.4519 76.9734 -10.3707 76.8886 -10.2895 76.8039C-10.0865 76.586 -9.84286 76.3923 -9.57897 76.2228C-9.55867 76.2107 -9.53837 76.1986 -9.53837 76.1865C-9.29477 76.0413 -8.96998 75.9081 -8.52338 75.7386C-8.30009 75.6539 -8.15799 75.6055 -8.01589 75.5692L-7.87379 75.5207C-7.77229 75.4844 -7.67079 75.4602 -7.56929 75.4481L-6.9603 75.3513C-6.7776 75.3149 -6.6761 75.3028 -6.55431 75.2907L10.0915 72.6155C10.5787 72.5428 11.1065 72.6276 11.4719 72.8333C11.8373 73.0512 11.9591 73.366 11.8373 73.6565L7.16832 83.6313C7.16832 83.6434 7.10742 83.7524 7.10742 83.7645L6.90442 84.1761C6.84352 84.285 6.76232 84.3818 6.66083 84.4666C6.57963 84.5634 6.49843 84.6482 6.41723 84.7329C6.21423 84.9508 5.97063 85.1445 5.70674 85.3019C5.68644 85.314 5.66614 85.3261 5.64584 85.3382C5.40224 85.4713 5.09775 85.6166 4.63085 85.7861C4.40755 85.8708 4.26546 85.9192 4.12336 85.9677L4.04216 86.0282C3.94066 86.0645 3.83916 86.0887 3.73766 86.1008L3.12867 86.1977C2.94597 86.234 2.84447 86.2461 2.72268 86.2582L-13.9231 88.9335C-14.0449 88.9456 -14.1667 88.9577 -14.3088 88.9577ZM-8.46248 78.2808L-8.23918 78.3171L-12.2585 86.9119L2.09338 84.6119L2.76328 85.3866L2.39788 84.5634L3.12867 84.394C3.51436 84.2487 3.67676 84.1882 3.71736 84.164L3.73766 84.1519C3.83916 84.0913 3.94066 84.0066 4.06246 83.8855C4.16396 83.7887 4.22486 83.704 4.28576 83.6192C4.30606 83.5829 4.32635 83.5587 4.36695 83.5224L4.44815 83.365L4.54965 83.3771C4.61055 83.3408 4.65115 83.3045 4.71205 83.2803L4.48875 83.244L8.5081 74.6491L-6.8791 77.155C-7.2851 77.3002 -7.4272 77.3729 -7.4678 77.3971L-7.4881 77.4092C-7.58959 77.4697 -7.69109 77.5544 -7.81289 77.6755C-7.91439 77.7723 -7.97529 77.8571 -8.03619 77.9418C-8.05649 77.9781 -8.07679 78.0023 -8.11739 78.0386L-8.19859 78.196L-8.30008 78.1839C-8.34068 78.2202 -8.40158 78.2565 -8.46248 78.2808Z" fill="white"/>
<path d="M4.73299 85.6051C4.36759 85.6051 4.0022 85.5203 3.718 85.3509C3.16991 85.024 3.16991 84.4793 3.718 84.1524C4.77359 83.523 4.61119 82.5303 4.40819 81.9856C4.0225 80.9203 2.94661 79.8066 1.36323 78.8503C-0.220151 77.9061 -2.06743 77.2403 -3.8538 77.0103C-4.76729 76.8892 -6.43187 76.7803 -7.48746 77.4098C-8.05585 77.7366 -8.94904 77.7366 -9.49713 77.4098C-10.0452 77.0829 -10.0452 76.5382 -9.49713 76.2113C-7.99495 75.3276 -5.78228 75.025 -3.22451 75.364C-0.910342 75.6787 1.44443 76.4898 3.3932 77.664C5.34198 78.8382 6.70206 80.2545 7.18925 81.6345C7.73735 83.1598 7.20955 84.4793 5.70737 85.363C5.44348 85.5203 5.09838 85.6051 4.73299 85.6051Z" fill="white"/>
<path d="M303.91 56.4922L285.194 68.7549L296.399 69.457L291.223 78.0639L309.878 65.9949L298.916 65.317L303.91 56.4922Z" fill="white"/>
<path d="M291.223 78.9107C290.979 78.9107 290.715 78.8743 290.492 78.7896C289.903 78.5838 289.66 78.1601 289.883 77.7849L294.451 70.1948L285.052 69.6016C284.524 69.5653 284.057 69.3595 283.874 69.0569C283.692 68.7543 283.793 68.4274 284.159 68.1853L302.875 55.9226C303.322 55.62 304.073 55.5594 304.641 55.7652C305.23 55.971 305.494 56.3826 305.27 56.77L300.845 64.59L310.041 65.1711C310.569 65.2074 311.035 65.4132 311.218 65.7158C311.401 66.0185 311.299 66.3574 310.934 66.5874L292.279 78.6443C291.994 78.8138 291.609 78.9107 291.223 78.9107ZM288.137 68.0885L296.541 68.6211C296.968 68.6453 297.374 68.7906 297.597 69.0085C297.82 69.2264 297.881 69.5048 297.739 69.7469L294.938 74.4196L306.935 66.66L298.795 66.1516C298.368 66.1274 297.983 65.9821 297.739 65.7642C297.496 65.5464 297.455 65.28 297.597 65.0379L300.419 60.0505L288.137 68.0885Z" fill="white"/>
<path d="M12.5278 35.7679C12.4466 35.7679 12.3654 35.7679 12.2842 35.7558C6.49878 35.1626 1.44414 33.2621 -1.94592 30.4052C-5.33598 27.5484 -6.65546 24.0741 -5.66077 20.612C-5.51867 20.152 -4.78788 19.8373 -4.01649 19.922C-3.2451 20.0067 -2.71731 20.4425 -2.8594 20.9025C-3.73229 23.9047 -2.57521 26.931 0.388554 29.4247C3.35232 31.9184 7.73706 33.5647 12.7917 34.0853C13.5631 34.17 14.0909 34.6058 13.9488 35.0658C13.8067 35.4774 13.1977 35.7679 12.5278 35.7679Z" fill="white"/>
<path d="M160.939 17.9598C160.574 17.9598 160.229 17.8751 159.944 17.7177C159.376 17.3909 159.376 16.8583 159.924 16.5193L181.523 3.25184C182.071 2.91289 182.964 2.91289 183.533 3.23973C184.101 3.56658 184.101 4.09921 183.553 4.43816L161.954 17.7056C161.69 17.863 161.305 17.9598 160.939 17.9598Z" fill="white"/>
<path d="M242.543 36.9771C242.137 36.9771 241.752 36.8802 241.467 36.6744L236.9 33.4665C236.392 33.1155 236.474 32.5707 237.062 32.2681C237.671 31.9655 238.564 32.0139 239.072 32.3649L243.639 35.5728C244.147 35.9239 244.066 36.4686 243.477 36.7713C243.193 36.9044 242.868 36.9771 242.543 36.9771Z" fill="white"/>
<path d="M227.42 26.3618C227.014 26.3618 226.628 26.265 226.344 26.0592L221.777 22.8513C221.269 22.5002 221.351 21.9555 221.939 21.6529C222.528 21.3502 223.441 21.3986 223.949 21.7497L228.516 24.9576C229.024 25.3087 228.943 25.8534 228.354 26.156C228.07 26.3013 227.745 26.3618 227.42 26.3618Z" fill="white"/>
<path d="M227.583 38.6012C227.42 38.6012 227.258 38.5891 227.095 38.5528C226.365 38.3955 225.979 37.9112 226.243 37.4755L228.618 33.517C228.882 33.0812 229.694 32.8512 230.425 33.0086C231.155 33.1659 231.541 33.6502 231.277 34.086L228.902 38.0444C228.719 38.3955 228.171 38.6012 227.583 38.6012Z" fill="white"/>
<path d="M235.439 25.4899C235.277 25.4899 235.114 25.4778 234.952 25.4415C234.221 25.2841 233.835 24.7999 234.099 24.3641L236.474 20.4057C236.738 19.9699 237.55 19.7399 238.281 19.8972C239.012 20.0546 239.397 20.5388 239.134 20.9746L236.759 24.9331C236.556 25.272 236.007 25.4899 235.439 25.4899Z" fill="white"/>
<path d="M217.738 31.7009C217.068 31.7009 216.459 31.4104 216.337 31.0109C216.195 30.5509 216.702 30.103 217.474 30.0304L224.416 29.2798C225.188 29.1951 225.939 29.4977 226.06 29.9577C226.202 30.4177 225.695 30.8656 224.924 30.9383L217.981 31.6888C217.9 31.6888 217.819 31.7009 217.738 31.7009Z" fill="white"/>
<path d="M240.717 29.1951C240.047 29.1951 239.438 28.9045 239.316 28.505C239.174 28.045 239.682 27.5971 240.453 27.5245L247.396 26.774C248.167 26.6892 248.918 26.9919 249.04 27.4519C249.182 27.9119 248.675 28.3598 247.903 28.4324L240.961 29.1829C240.879 29.1951 240.798 29.1951 240.717 29.1951Z" fill="white"/>
<path d="M254.014 82.676C253.729 82.676 253.465 82.6518 253.181 82.6034C251.72 82.325 250.908 81.3929 251.375 80.5213C251.842 79.6497 253.384 79.1655 254.846 79.4439C256.307 79.7223 257.119 80.6544 256.653 81.526C256.287 82.2281 255.191 82.676 254.014 82.676ZM254.034 80.9813C254.014 80.9813 253.973 80.9934 253.973 81.0055L253.628 81.7924L254.034 80.9813Z" fill="white"/>
<path d="M-0.0377746 107.092C-0.321971 107.092 -0.606168 107.068 -0.890364 107.008C-2.39254 106.729 -3.22483 105.761 -2.75794 104.865C-2.53464 104.429 -2.02715 104.078 -1.35726 103.872C-0.687366 103.667 0.084024 103.618 0.814815 103.763C1.54561 103.897 2.1343 104.199 2.47939 104.599C2.82449 104.998 2.88539 105.458 2.66209 105.894C2.2967 106.632 1.15991 107.092 -0.0377746 107.092Z" fill="white"/>
<path d="M104.283 67.5563C103.999 67.5563 103.714 67.5321 103.45 67.4837C102.74 67.3505 102.172 67.06 101.826 66.6726C101.481 66.2852 101.42 65.8373 101.644 65.4137C101.867 64.99 102.354 64.651 103.004 64.4452C103.653 64.2394 104.405 64.2031 105.115 64.3363C105.826 64.4694 106.394 64.76 106.739 65.1473C107.084 65.5347 107.145 65.9826 106.922 66.4063C106.698 66.83 106.211 67.1689 105.562 67.3747C105.156 67.4958 104.709 67.5563 104.283 67.5563ZM104.283 65.8616C104.242 65.8616 104.222 65.8737 104.202 65.8979L104.303 65.8737C104.283 65.8616 104.283 65.8616 104.283 65.8616Z" fill="white"/>
<path d="M218.996 64.8823C218.63 64.8823 218.265 64.7976 217.981 64.6281C217.433 64.3013 217.433 63.7565 217.981 63.4297L234.85 53.3701C235.398 53.0433 236.312 53.0433 236.86 53.3701C237.408 53.697 237.408 54.2417 236.86 54.5686L219.991 64.6281C219.727 64.7976 219.361 64.8823 218.996 64.8823Z" fill="white"/>
<path d="M235.865 64.8823C235.5 64.8823 235.134 64.7976 234.85 64.6281L217.981 54.5686C217.433 54.2417 217.433 53.697 217.981 53.3701C218.529 53.0433 219.442 53.0433 219.991 53.3701L236.86 63.4297C237.408 63.7565 237.408 64.3013 236.86 64.6281C236.596 64.7976 236.23 64.8823 235.865 64.8823Z" fill="white"/>
<path d="M95.31 42.4747C94.9243 42.4747 94.5792 42.39 94.295 42.2205L80.7348 34.1341C80.1867 33.8073 80.1867 33.2626 80.7348 32.9357L94.295 24.8493C94.8228 24.5346 95.7769 24.5346 96.3047 24.8493L109.865 32.9357C110.413 33.2626 110.413 33.8073 109.865 34.1341L96.3047 42.2205C96.0408 42.3779 95.6754 42.4747 95.31 42.4747ZM83.7392 33.5289L95.2897 40.4168L106.84 33.5289L95.31 26.6409L83.7392 33.5289Z" fill="white"/>
</g>
</svg>
