<svg width="19" height="20" viewBox="0 0 19 20" fill="none" xmlns="http://www.w3.org/2000/svg">
<path fill-rule="evenodd" clip-rule="evenodd" d="M15.4622 8.2793C15.0389 8.2793 14.6953 8.61783 14.6953 9.03665C14.6953 11.8654 12.3647 14.1669 9.5003 14.1669C6.63516 14.1669 4.30455 11.8654 4.30455 9.03665C4.30455 8.61783 3.96098 8.2793 3.53765 8.2793C3.11432 8.2793 2.77075 8.61783 2.77075 9.03665C2.77075 12.4447 5.38281 15.2583 8.7334 15.6362V17.16C8.7334 17.5781 9.07621 17.9173 9.5003 17.9173C9.92363 17.9173 10.2672 17.5781 10.2672 17.16V15.6362C13.617 15.2583 16.2291 12.4447 16.2291 9.03665C16.2291 8.61783 15.8855 8.2793 15.4622 8.2793Z" fill="#CDCDD0"/>
<path fill-rule="evenodd" clip-rule="evenodd" d="M9.36142 12.5475H9.63827C11.1613 12.5475 12.4536 11.5721 12.9083 10.2194C12.9743 10.0225 12.8232 9.81957 12.6138 9.81957H11.7611C11.4896 9.81957 11.2702 9.60297 11.2702 9.33562C11.2702 9.06752 11.4896 8.85016 11.7611 8.85016H12.5878C12.8616 8.85016 13.0832 8.63128 13.0832 8.36091C13.0832 8.09054 12.8616 7.87166 12.5878 7.87166H11.7611C11.4896 7.87166 11.2702 7.6543 11.2702 7.38696C11.2702 7.11885 11.4896 6.90149 11.7611 6.90149H12.5878C12.8616 6.90149 13.0832 6.68262 13.0832 6.41225C13.0832 6.14187 12.8616 5.923 12.5878 5.923H11.7611C11.4896 5.923 11.2702 5.70564 11.2702 5.43754C11.2702 5.17019 11.4896 4.95283 11.7611 4.95283H12.6576C12.8631 4.95283 13.0103 4.75895 12.9551 4.56279C12.5479 3.13216 11.2173 2.08398 9.63827 2.08398H9.36142C7.45874 2.08398 5.9165 3.60626 5.9165 5.48601V9.14553C5.9165 11.0245 7.45874 12.5475 9.36142 12.5475Z" fill="#448EFC"/>
</svg>
